<?xml version="1.0" encoding="utf-8"?>
<!-- Generator: Adobe Illustrator 24.1.1, SVG Export Plug-In . SVG Version: 6.00 Build 0)  -->
<svg version="1.1" id="Layer_1" xmlns="http://www.w3.org/2000/svg" xmlns:xlink="http://www.w3.org/1999/xlink" x="0px" y="0px"
	 viewBox="0 0 512 512" style="enable-background:new 0 0 512 512;" xml:space="preserve">
<style type="text/css">
	.st0{fill-rule:evenodd;clip-rule:evenodd;fill:#0DB7ED;}
</style>
<g>
	<path class="st0" d="M148.1,325.1l3.4,0.6l-1.9,3.3c0,2.1,1.7,3.8,3.8,3.8l3.3-2l0.7,3.6c0,5.1-4.2,9.3-9.3,9.3
		c-5.1,0-9.3-4.2-9.3-9.3C138.8,329.3,143,325.1,148.1,325.1z M148.1,350.4c-8.8,0-16-7.2-16-16c0-8.8,7.2-16,16-16
		c8.8,0,16,7.2,16,16C164.1,343.3,156.9,350.4,148.1,350.4z M434.9,245.9c-45.3,120.1-147.6,173.5-268.3,173.5
		c-57,0-102.5-19.6-131.6-52.3l0.2-0.1c8.4,0.4,15.9,0.6,23.5,0.6c7,0,13.8-0.1,20.1-0.4l1.8-0.1l1-0.1c16-1,28.4-3.2,40-6.5h0
		c2.1-0.6,4.1-1.2,6.1-1.9c2.2-0.8,3.3-3.1,2.6-5.3c-0.8-2.2-3.1-3.3-5.3-2.6c-14.7,5.1-34.1,7.9-57.9,8.4h0
		c-12.1,0.3-25.3-0.1-39.7-1c-3-4-5.7-8.1-8.2-12.4l-4-7.3c-12-23.6-17.3-51.2-14.5-81.1h349.1c28.7,0,56.7-10.7,70-22.5
		c-23.8-19.4-21.5-65.4-6.3-82.9c13.2,10.6,34.4,32.9,30.8,61.3c16.6-8.3,45.4-12.4,67.7,0.5C497.9,241,467,249.2,434.9,245.9z
		 M48.1,248.7h47.2v-47.2H48.1V248.7z M102.6,248.7h47.2v-47.2h-47.2V248.7z M102.6,194.3h47.2v-47.2h-47.2V194.3z M157,248.7h47.2
		v-47.2H157V248.7z M157,194.3h47.2v-47.2H157V194.3z M211.5,248.7h47.2v-47.2h-47.2V248.7z M211.5,194.3h47.2v-47.2h-47.2V194.3z
		 M211.5,139.8h47.2V92.6h-47.2V139.8z M266,248.7h47.2v-47.2H266V248.7z"/>
</g>
</svg>
