<?xml version="1.0" standalone="no"?>
<!DOCTYPE svg PUBLIC "-//W3C//DTD SVG 20010904//EN"
 "http://www.w3.org/TR/2001/REC-SVG-20010904/DTD/svg10.dtd">
<svg version="1.0" xmlns="http://www.w3.org/2000/svg"
 width="920.000000pt" height="920.000000pt" viewBox="0 0 920.000000 920.000000"
 preserveAspectRatio="xMidYMid meet">

<g transform="translate(0.000000,920.000000) scale(0.100000,-0.100000)"
fill="#000000" stroke="none">
<path d="M3424 8286 c-17 -8 -39 -24 -48 -37 -19 -28 -22 -109 -4 -127 10 -10
-17 -42 -127 -152 -116 -116 -143 -139 -160 -132 -11 4 -39 7 -62 7 -78 -1
-128 -79 -98 -151 15 -37 15 -38 -10 -64 -26 -27 -27 -27 -68 -12 -37 13 -46
13 -79 -1 -20 -8 -44 -27 -54 -41 -20 -31 -22 -99 -4 -121 12 -14 -5 -35 -126
-156 -95 -95 -144 -137 -154 -133 -33 13 -86 14 -109 2 -35 -19 -63 -61 -66
-99 l-2 -33 -188 -63 -188 -62 -39 44 c-86 98 -231 77 -288 -40 -22 -45 -23
-87 -6 -150 5 -17 -26 -41 -198 -158 l-205 -137 -36 21 c-66 39 -157 -1 -171
-76 -7 -37 17 -102 41 -111 8 -3 15 -11 15 -17 0 -10 -80 -215 -261 -672 l-47
-120 -44 2 c-136 8 -248 -92 -248 -222 0 -164 173 -268 319 -192 l49 25 77
-78 78 -78 -22 -44 c-11 -24 -21 -60 -21 -79 0 -40 29 -107 56 -131 29 -25 88
-48 126 -48 47 0 114 37 138 76 12 19 23 34 25 34 1 0 74 -25 161 -55 88 -30
159 -55 160 -55 0 0 -1 -13 -4 -29 -9 -64 42 -151 105 -177 68 -29 145 -13
204 42 l26 24 269 -140 c148 -77 372 -193 497 -258 l228 -117 -5 -32 c-11 -71
30 -151 94 -183 77 -39 177 -14 222 54 l22 34 163 -56 163 -56 0 -48 c0 -100
71 -170 170 -170 53 0 82 12 126 53 l31 30 59 -32 60 -32 -4 -57 c-3 -38 1
-66 11 -86 40 -77 130 -118 206 -95 53 15 107 70 121 121 l11 40 382 -2 382
-3 55 -163 55 -163 -21 -17 c-29 -23 -44 -54 -44 -92 0 -69 49 -115 119 -113
l38 2 83 -172 c45 -95 119 -245 164 -334 80 -161 80 -163 60 -178 -31 -21 -47
-69 -41 -118 7 -53 59 -104 115 -113 l38 -6 78 -320 78 -320 -31 -30 c-36 -35
-46 -65 -37 -111 13 -71 101 -109 165 -71 l30 18 123 -94 c68 -52 229 -175
358 -273 l234 -178 -3 -39 c-7 -109 148 -125 166 -18 5 32 1 41 -25 68 -17 16
-38 30 -46 30 -30 0 -18 44 17 60 40 19 62 57 53 93 -7 31 -43 67 -67 67 -12
0 -18 12 -22 48 -4 26 -32 228 -63 450 l-57 403 21 22 c46 49 54 123 22 188
-12 22 -32 45 -45 51 -14 6 -25 16 -25 23 0 6 31 106 68 221 64 196 70 209 95
214 55 10 90 68 69 113 -9 19 -3 29 40 73 46 47 52 51 77 41 76 -29 144 79 86
136 -13 14 -9 28 40 126 l55 111 57 0 c105 0 169 66 161 164 l-4 52 287 147
286 147 37 -35 c81 -76 196 -67 263 22 24 32 28 45 28 104 0 53 -5 74 -21 96
-19 25 -70 66 -94 75 -5 2 25 175 67 384 l75 382 44 5 c50 5 106 43 135 91 38
62 18 172 -39 216 l-25 20 33 73 c18 39 81 169 140 287 l108 215 58 -3 c77 -3
128 24 162 88 74 139 -60 300 -205 248 l-43 -16 -233 317 c-129 174 -237 321
-241 328 -4 7 1 27 10 44 22 43 13 104 -19 137 -18 17 -40 26 -74 29 -42 4
-54 1 -78 -20 l-30 -25 -86 43 -86 44 5 54 c9 107 -69 192 -173 191 -32 -1
-64 -8 -84 -20 l-32 -19 -234 236 -235 235 6 46 c6 41 3 49 -19 72 -35 35 -88
35 -122 1 -14 -13 -25 -29 -25 -35 0 -5 -11 -10 -25 -10 -18 0 -28 7 -35 25
-20 52 -98 66 -135 25 -16 -18 -18 -18 -63 2 -53 22 -462 189 -679 276 l-143
57 0 51 c0 84 -60 152 -141 161 -62 7 -126 -29 -154 -85 -23 -47 -24 -48 -175
-32 -270 29 -513 53 -870 90 -646 65 -894 91 -896 93 -1 1 -9 19 -17 39 -26
62 -94 90 -153 64z m1119 -226 c488 -50 900 -90 915 -90 38 0 51 -11 58 -47
l6 -31 -293 -147 c-161 -81 -300 -152 -309 -157 -13 -8 -42 3 -125 45 l-109
56 -1 46 c0 41 -5 51 -39 82 -35 32 -42 35 -83 30 -30 -3 -54 -13 -72 -31
l-27 -26 -149 61 c-83 34 -181 74 -220 89 -60 24 -70 31 -77 58 -16 59 -97 90
-162 61 -22 -10 -41 -5 -143 36 -134 55 -156 69 -98 60 22 -3 439 -46 928 -95z
m-745 -88 c3 -28 1 -29 -76 -50 -44 -12 -84 -22 -89 -22 -5 0 -29 40 -53 90
-42 85 -43 90 -26 108 17 19 19 18 129 -39 100 -52 112 -61 115 -87z m-379
104 c9 -11 5 -40 -17 -127 l-28 -114 -118 -31 c-170 -45 -170 -36 1 144 74 78
138 142 143 142 4 0 13 -6 19 -14z m138 -96 l41 -90 -36 -9 c-123 -32 -157
-40 -160 -37 -3 4 46 205 54 218 3 4 17 8 32 8 24 0 31 -9 69 -90z m253 50 c8
-5 11 -10 5 -10 -5 0 -17 5 -25 10 -8 5 -10 10 -5 10 6 0 17 -5 25 -10z m264
-105 c51 -21 45 -27 -9 -8 -25 8 -45 17 -45 19 0 8 18 4 54 -11z m-282 -68
c-25 -25 -31 -27 -57 -17 -16 6 -43 10 -59 8 -22 -2 -32 2 -34 13 -2 13 14 21
75 36 71 18 79 19 91 4 10 -13 8 -20 -16 -44z m444 -21 c120 -41 218 -77 217
-80 -2 -3 -5 -6 -8 -6 -3 0 -122 0 -265 0 l-260 0 0 43 c0 40 3 45 35 60 19 9
40 26 47 37 7 11 13 20 14 20 0 0 99 -33 220 -74z m1773 -27 c426 -172 667
-272 676 -280 5 -5 -136 -9 -348 -9 l-357 0 -10 25 c-10 27 -64 59 -85 51 -17
-6 -29 14 -84 129 l-42 91 28 32 c15 17 32 31 37 32 4 0 88 -32 185 -71z
m-2390 44 c7 -13 3 -24 -15 -46 -13 -16 -24 -35 -24 -43 0 -11 -20 -14 -100
-14 -104 0 -108 2 -91 45 6 14 33 26 107 46 122 33 111 32 123 12z m256 -3
c24 -9 26 -14 23 -57 l-3 -46 -44 0 c-39 0 -45 3 -56 29 -11 26 -10 32 13 57
29 30 31 31 67 17z m1515 -166 l-165 -165 -65 3 c-47 2 -65 7 -65 17 0 13 446
323 455 315 2 -3 -70 -79 -160 -170z m75 148 c-6 -5 -94 -66 -197 -135 l-187
-127 -33 14 c-18 7 -39 11 -45 9 -7 -3 -13 -2 -13 1 0 5 467 244 480 245 2 1
0 -3 -5 -7z m130 -14 c14 -6 25 -16 25 -22 0 -6 -15 -69 -33 -141 l-33 -130
-142 -3 c-78 -1 -142 1 -142 5 0 7 291 303 297 303 1 0 14 -5 28 -12z m191
-119 l56 -112 -18 -33 c-24 -43 -57 -46 -78 -6 -8 15 -26 33 -40 40 -25 11
-26 14 -26 107 0 99 2 102 47 114 2 1 28 -49 59 -110z m-2426 81 c0 -11 -6
-22 -12 -25 -23 -7 -199 -13 -193 -6 8 7 162 49 188 50 11 1 17 -6 17 -19z
m2300 -84 c0 -94 -2 -104 -19 -109 -11 -3 -30 -20 -41 -38 -19 -29 -21 -31
-16 -9 3 14 18 78 33 143 15 64 31 117 35 117 5 0 8 -47 8 -104z m-2324 -8
c-3 -17 -7 -32 -9 -33 -1 -1 -49 -14 -107 -29 -99 -26 -105 -27 -117 -10 -11
15 -9 22 12 44 14 14 25 34 25 43 0 15 13 17 101 17 l102 0 -7 -32z m134 3
c-58 -15 -107 -27 -109 -25 -2 2 -1 15 3 29 6 25 7 25 109 24 l102 -1 -105
-27z m429 -258 l-1 -288 -78 239 -79 239 30 29 c16 16 29 38 29 49 0 16 7 19
50 19 l50 0 -1 -287z m569 255 l12 -33 -259 -259 c-219 -218 -262 -257 -280
-251 -21 6 -21 9 -21 291 l0 284 268 0 268 0 12 -32z m-874 -15 c5 -12 -24
-47 -110 -134 l-116 -117 -29 17 c-16 9 -29 23 -29 31 0 17 37 160 42 164 5 5
202 54 219 55 9 1 20 -7 23 -16z m1156 -43 c67 -35 72 -39 43 -40 -17 0 -37
-2 -45 -4 -7 -2 -30 16 -52 40 -21 24 -35 44 -30 44 5 -1 43 -19 84 -40z
m-1747 -7 c9 -3 17 -15 17 -27 0 -17 -9 -24 -47 -33 -41 -10 -50 -9 -61 5 -10
13 -8 21 15 44 17 18 33 26 43 22 8 -3 23 -9 33 -11z m678 -1 l36 -4 77 -234
c76 -231 77 -234 59 -259 -11 -14 -24 -22 -33 -19 -8 3 -100 35 -205 70 l-190
65 0 42 c0 24 -9 62 -19 85 l-20 43 115 115 c80 80 118 112 129 108 8 -4 31
-9 51 -12z m897 3 l53 -1 39 -60 c22 -32 40 -64 40 -71 0 -7 13 -27 29 -45 59
-68 212 -312 205 -328 -4 -8 -9 -32 -12 -52 -5 -47 31 -88 78 -88 28 0 33 -6
81 -102 l51 -103 -41 -44 -40 -44 -529 179 -529 179 -10 36 -9 36 254 262
c195 201 259 260 271 254 9 -4 40 -8 69 -8z m-1274 -76 c-9 -41 -19 -77 -23
-80 -3 -4 -27 -9 -52 -11 l-46 -5 -31 62 -31 63 97 24 c53 14 98 24 100 23 1
-1 -5 -35 -14 -76z m-224 57 c0 -8 -7 -17 -16 -20 -23 -9 -24 -8 -24 14 0 13
7 20 20 20 11 0 20 -6 20 -14z m1640 -48 c0 -18 -16 -6 -39 30 l-24 37 32 -29
c17 -17 31 -33 31 -38z m235 12 c-3 -5 -11 -10 -16 -10 -6 0 -7 5 -4 10 3 6
11 10 16 10 6 0 7 -4 4 -10z m-1824 -63 l31 -63 -33 -33 c-31 -32 -35 -33 -59
-20 -23 13 -25 21 -28 91 -3 80 -1 83 46 87 7 0 26 -27 43 -62z m-111 -22 c0
-36 -2 -65 -5 -65 -11 0 -84 40 -90 49 -13 23 7 61 39 70 55 16 56 16 56 -54z
m1908 48 c2 -8 -6 -13 -22 -13 -28 0 -43 15 -24 23 20 8 41 3 46 -10z m-1 -39
c-3 -3 -12 -4 -19 -1 -8 3 -5 6 6 6 11 1 17 -2 13 -5z m263 -9 c-15 -18 -26
-18 -65 0 -30 13 -30 13 24 14 46 1 52 -1 41 -14z m350 1 c-8 -7 -56 -27 -106
-44 l-92 -32 -58 20 c-33 11 -65 23 -73 25 -11 4 -10 9 4 25 17 18 31 20 179
20 135 0 158 -2 146 -14z m1155 -7 c10 -29 -68 -110 -87 -91 -7 7 -31 12 -55
12 -33 0 -50 -7 -78 -31 l-35 -31 -227 77 c-125 42 -230 78 -232 81 -2 2 156
4 352 4 354 0 356 0 362 -21z m215 11 c0 -13 -48 -36 -56 -27 -4 3 -4 13 -1
22 7 17 57 21 57 5z m-1948 -44 c21 -12 38 -29 38 -38 0 -10 -3 -18 -6 -18 -6
0 -99 64 -119 82 -17 16 48 -4 87 -26z m850 15 c5 -4 -14 -28 -41 -55 -41 -40
-52 -46 -68 -38 -29 16 -26 50 6 67 16 8 31 21 35 30 4 11 13 14 33 9 16 -4
31 -10 35 -13z m-667 -12 c5 -5 1 -9 -12 -9 -29 0 -53 10 -53 22 0 12 50 2 65
-13z m465 6 c18 -22 -25 -115 -53 -115 -17 0 -19 5 -13 39 13 85 37 111 66 76z
m465 -19 c100 -34 112 -49 19 -22 -27 8 -68 20 -91 26 -24 6 -43 15 -43 20 0
15 7 13 115 -24z m-3055 -121 l0 -74 -41 -11 c-23 -6 -46 -9 -53 -7 -6 2 -24
43 -39 91 l-28 86 27 23 27 23 53 -29 54 -29 0 -73z m2505 86 c-4 -23 -12 -41
-18 -41 -18 0 -117 33 -117 39 0 6 133 49 138 45 2 -2 1 -21 -3 -43z m1438 9
c-7 -25 -15 -25 -39 1 -15 17 -16 22 -4 29 21 13 49 -6 43 -30z m-2031 -105
l-9 -40 -11 27 c-6 14 -25 55 -42 90 l-32 63 51 -50 c50 -50 51 -52 43 -90z
m313 115 c28 -10 45 -19 38 -19 -23 -2 -113 23 -113 31 0 12 19 9 75 -12z
m587 -60 c-15 -43 -24 -56 -42 -58 -15 -3 -29 3 -37 14 -12 16 -7 24 39 72 30
29 54 47 56 40 1 -7 -6 -38 -16 -68z m912 74 c29 -11 17 -30 -39 -57 -30 -15
-55 -24 -55 -20 0 6 71 83 76 83 1 0 9 -3 18 -6z m536 -230 c129 -130 228
-232 219 -228 -9 5 -102 74 -207 154 l-192 145 -30 77 c-29 74 -33 88 -27 88
1 0 108 -106 237 -236z m-2420 146 c22 -44 40 -83 40 -87 0 -5 -25 30 -55 75
-30 46 -55 86 -55 88 0 2 7 4 15 4 8 0 32 -34 55 -80z m230 64 c11 -13 10 -18
-7 -36 -17 -16 -24 -18 -42 -9 -13 7 -21 21 -21 36 0 21 5 25 29 25 16 0 34
-7 41 -16z m570 -12 c0 -21 -7 -32 -25 -40 -30 -14 -30 -13 -8 33 20 42 33 45
33 7z m268 -34 l18 -63 -49 -3 c-27 -2 -51 -1 -54 2 -4 4 23 99 34 119 13 23
34 1 51 -55z m267 -2 l250 -64 -235 -1 -236 -1 -21 65 c-12 36 -18 65 -15 65
4 0 120 -29 257 -64z m665 60 c0 -2 -16 -16 -35 -30 -23 -18 -35 -22 -35 -13
0 7 15 21 33 30 37 18 37 18 37 13z m176 -51 c13 -31 24 -58 24 -61 0 -4 -17
6 -37 22 -21 15 -40 29 -41 30 -8 6 10 64 19 64 6 0 21 -25 35 -55z m-4281 35
c4 -6 -12 -66 -34 -133 l-41 -123 -89 -22 c-103 -26 -117 -27 -124 -8 -5 13
256 296 273 296 5 0 12 -5 15 -10z m2217 -37 c24 -29 -20 -12 -48 18 l-29 32
33 -19 c19 -10 38 -25 44 -31z m232 21 c44 -8 46 -20 5 -29 -22 -5 -36 -2 -50
11 -22 20 -25 39 -5 31 8 -3 31 -9 50 -13z m1712 -6 c16 -12 31 -23 33 -24 5
-5 -152 -804 -159 -804 -3 0 -4 174 -2 387 l2 388 43 37 c23 21 45 38 48 38 4
0 19 -10 35 -22z m-4049 -85 l31 -93 -36 -9 c-143 -37 -153 -39 -149 -28 2 7
19 60 37 118 31 101 33 106 59 106 26 0 30 -6 58 -94z m217 42 c-3 -6 -6 -29
-7 -51 -2 -27 -8 -40 -20 -42 -15 -3 -17 6 -17 62 l0 66 24 -11 c14 -7 22 -17
20 -24z m2065 0 c-3 -2 -21 -8 -40 -11 l-34 -7 24 27 c22 23 27 25 40 11 8 -8
12 -17 10 -20z m1594 -11 c-10 -8 -30 -23 -44 -34 l-27 -20 -5 26 c-4 22 2 28
42 49 38 19 47 21 49 8 2 -8 -5 -21 -15 -29z m-1379 20 c33 -8 78 -20 99 -25
72 -19 38 -29 -96 -29 -119 0 -136 2 -151 19 -17 18 -16 20 26 34 55 20 50 20
122 1z m1666 -51 c48 -38 49 -40 163 -328 63 -159 113 -293 111 -297 -3 -4
-91 -50 -197 -104 l-192 -97 -34 32 c-18 17 -39 31 -47 31 -8 0 -14 5 -14 12
0 23 152 788 157 788 3 0 26 -17 53 -37z m-1840 12 c11 -13 7 -15 -29 -15 -46
0 -52 6 -18 20 31 12 33 12 47 -5z m357 -11 c-3 -3 -12 -4 -19 -1 -8 3 -5 6 6
6 11 1 17 -2 13 -5z m1213 -376 c0 -210 -3 -378 -7 -374 -5 4 -42 145 -84 314
-67 273 -74 308 -60 319 9 6 42 37 74 67 33 31 63 56 68 56 5 0 9 -159 9 -382z
m-1580 306 c39 -26 70 -49 70 -51 0 -2 -36 15 -80 37 -45 22 -78 45 -75 50 9
14 9 14 85 -36z m95 -4 c27 -27 44 -50 37 -50 -15 0 -140 82 -141 93 -1 4 12
7 27 7 20 0 41 -14 77 -50z m213 28 c-2 -17 -18 -26 -73 -45 l-69 -23 -38 37
c-21 20 -38 41 -38 45 0 4 50 8 111 8 107 0 110 -1 107 -22z m52 13 c0 -12
-20 -25 -27 -18 -7 7 6 27 18 27 5 0 9 -4 9 -9z m260 0 c0 -4 -5 -22 -11 -40
-11 -30 -12 -31 -30 -16 -14 14 -16 21 -7 41 10 22 48 35 48 15z m159 -8 c5
-10 28 -76 51 -146 40 -123 41 -129 23 -142 -16 -13 -28 -4 -127 94 l-108 108
12 39 c6 22 13 45 15 52 3 8 25 12 64 12 47 0 62 -4 70 -17z m490 -19 l13 -37
-122 -122 -122 -122 -36 19 c-21 11 -52 18 -72 16 l-34 -3 -43 130 c-24 72
-43 136 -43 143 0 9 51 12 223 12 l223 0 13 -36z m-849 -7 c0 -16 -67 -83 -75
-75 -10 9 27 77 44 81 28 8 31 7 31 -6z m-362 -83 c-13 -12 -148 -51 -153 -44
-3 5 -12 28 -20 51 -14 38 -14 44 1 60 16 17 20 16 96 -22 44 -22 78 -42 76
-45z m-2145 61 c4 -9 -5 -22 -23 -35 l-30 -21 0 29 c0 16 3 32 7 35 12 12 41
7 46 -8z m4259 -159 l157 -119 -16 -30 c-10 -21 -14 -47 -11 -84 l5 -54 -79
-40 -78 -39 -9 22 c-16 41 -150 382 -176 447 -14 36 -25 67 -25 69 0 4 12 -5
232 -172z m-3719 89 c187 -64 197 -69 197 -93 0 -14 9 -36 21 -48 20 -21 20
-25 7 -64 l-13 -41 -215 146 c-118 80 -217 153 -219 162 -2 10 2 14 10 11 8
-3 103 -35 212 -73z m1348 65 c11 -6 19 -21 19 -35 0 -44 -14 -33 -48 38 -5
10 6 9 29 -3z m526 -12 c-3 -8 -6 -5 -6 6 -1 11 2 17 5 13 3 -3 4 -12 1 -19z
m234 -111 c-16 -48 -31 -90 -34 -93 -18 -18 -27 17 -27 107 0 94 1 100 23 108
17 7 27 4 44 -13 l23 -21 -29 -88z m-2721 89 c0 -25 -6 -38 -25 -50 -35 -23
-40 -21 -53 23 -15 50 -16 49 11 54 60 12 67 9 67 -27z m2450 20 c0 -7 -12
-16 -27 -19 -16 -3 -38 -8 -50 -12 -45 -14 -22 10 25 26 26 9 48 17 50 18 1 0
2 -5 2 -13z m188 -89 c1 -53 0 -97 -4 -97 -4 0 -24 5 -44 11 -33 10 -39 16
-42 45 -3 26 4 47 31 89 20 30 41 53 46 52 6 -2 11 -47 13 -100z m-618 50 c0
-10 -4 -15 -10 -12 -5 3 -10 18 -10 33 0 21 2 24 10 12 5 -8 10 -23 10 -33z
m-2119 -23 l17 -45 -103 -69 -104 -70 -38 16 c-21 9 -39 17 -40 18 -2 1 8 36
22 77 l25 74 98 26 c53 14 99 24 102 22 2 -2 12 -24 21 -49z m3592 47 c15 -6
-4 -25 -104 -101 -67 -52 -130 -99 -138 -104 -9 -5 33 42 94 103 60 61 114
111 120 110 5 0 18 -4 28 -8z m-3378 -25 l26 -24 -36 -71 c-19 -39 -39 -71
-44 -71 -33 0 -41 14 -41 74 0 57 2 63 32 88 18 15 34 28 35 28 1 0 14 -11 28
-24z m695 -285 c0 -7 -5 -30 -11 -50 -12 -40 2 -29 -282 -220 -194 -131 -198
-133 -218 -115 -13 11 -38 19 -67 20 l-46 2 -48 95 -48 96 29 29 c63 62 63
162 0 224 l-29 29 34 67 34 67 65 0 c56 0 71 4 108 30 l43 30 218 -145 c119
-80 217 -151 218 -159z m1744 284 c-9 -14 -21 -25 -27 -25 -6 0 0 11 13 25 13
14 25 25 27 25 2 0 -4 -11 -13 -25z m1077 -309 c57 -229 71 -300 61 -304 -7
-2 -25 -14 -39 -26 l-26 -22 -198 133 -198 134 11 30 c10 29 7 87 -7 121 -5
12 30 44 151 137 108 82 160 117 165 109 3 -7 39 -148 80 -312z m-757 200 c86
-93 96 -107 85 -124 -12 -19 -16 -18 -130 20 l-117 39 24 72 c32 95 33 97 37
97 3 0 48 -47 101 -104z m-584 79 c17 -9 30 -22 30 -30 0 -11 -24 -14 -115
-17 -63 -2 -115 -1 -115 2 0 5 143 57 163 59 4 1 21 -6 37 -14z m-2660 -66
c-12 -35 -23 -65 -24 -66 -1 -2 -34 8 -72 20 -56 19 -69 28 -70 45 -1 17 7 24
35 31 105 28 146 38 149 36 2 -2 -7 -31 -18 -66z m370 -3 c0 -72 -23 -83 -40
-20 -12 41 -11 46 6 59 30 23 34 18 34 -39z m-62 -33 c9 -30 9 -39 -1 -42 -16
-6 -63 -53 -68 -69 -3 -9 -18 -7 -59 9 -30 11 -57 22 -58 24 -4 4 159 115 169
115 3 0 11 -17 17 -37z m2382 13 c0 -8 12 -29 26 -46 15 -17 24 -33 22 -35 -5
-5 -267 81 -276 90 -3 3 47 5 111 5 95 0 117 -3 117 -14z m-866 -175 c259 -88
496 -168 526 -179 52 -18 55 -21 58 -55 2 -21 -1 -37 -6 -37 -5 0 -196 -38
-423 -85 l-414 -84 -18 24 c-10 13 -33 27 -51 30 l-33 7 -57 181 c-32 100 -69
213 -82 251 -23 65 -24 70 -8 87 10 11 21 19 27 19 5 0 221 -72 481 -159z
m647 62 c17 -54 34 -105 36 -113 2 -8 -19 29 -47 83 -42 80 -48 100 -38 112 7
8 14 14 15 15 1 0 16 -44 34 -97z m-2827 57 l28 -29 -17 -50 -17 -51 -198 0
c-174 0 -199 2 -204 16 -4 9 -5 18 -4 19 10 7 356 124 368 124 8 0 28 -13 44
-29z m263 9 c34 -12 60 -25 57 -30 -2 -4 -11 -6 -19 -3 -8 3 -29 -1 -47 -10
-32 -16 -33 -16 -61 13 -28 27 -30 51 -5 51 7 0 40 -10 75 -21z m2688 -15 c60
-20 114 -40 118 -44 5 -4 -7 -39 -27 -77 l-35 -70 -53 5 c-29 2 -56 7 -59 11
-7 6 -69 191 -69 204 0 11 8 9 125 -29z m388 17 c36 -14 34 -34 -4 -48 -28
-11 -32 -9 -59 20 -15 18 -26 36 -23 40 6 10 42 4 86 -12z m-3161 -48 c24 -26
25 -30 12 -60 -13 -30 -18 -33 -59 -33 l-45 0 0 48 c0 43 3 49 28 59 15 6 30
11 33 12 3 1 17 -11 31 -26z m1424 -21 c-12 -11 -18 7 -10 30 l8 23 4 -23 c2
-13 1 -26 -2 -30z m44 17 c0 -11 -4 -17 -10 -14 -5 3 -10 15 -10 26 0 11 5 17
10 14 6 -3 10 -15 10 -26z m1615 1 c40 -42 24 -54 -43 -33 -29 9 -52 22 -52
28 0 9 36 29 61 34 3 1 18 -13 34 -29z m145 20 c0 -5 -2 -10 -4 -10 -3 0 -8 5
-11 10 -3 6 -1 10 4 10 6 0 11 -4 11 -10z m-2991 -20 c3 0 0 -5 -7 -12 -9 -9
-17 -8 -37 2 -35 19 -31 30 7 19 18 -5 35 -9 37 -9z m3073 1 c29 -10 81 -29
116 -41 90 -33 83 -50 -22 -50 l-84 0 -12 30 c-7 17 -23 39 -36 49 -22 17 -31
31 -19 31 2 0 28 -8 57 -19z m-3422 -41 c0 -46 -2 -50 -24 -50 l-24 0 16 50
c9 28 19 50 24 50 4 0 8 -22 8 -50z m459 -1 c35 -12 60 -26 58 -33 -2 -7 -35
-12 -85 -14 -78 -3 -83 -2 -91 20 -6 17 -4 26 8 35 22 17 38 16 110 -8z m2591
14 c0 -8 -61 -103 -66 -103 -2 0 8 25 23 55 24 48 43 70 43 48z m150 -83 c0
-35 -2 -37 -87 -78 l-86 -43 -25 24 -24 25 50 75 51 74 60 -21 c59 -20 61 -22
61 -56z m-3283 -12 c-2 -7 -26 -79 -53 -160 -43 -131 -51 -148 -71 -148 -12 0
-34 -5 -49 -10 -27 -10 -33 -6 -144 105 l-116 116 26 54 25 55 194 0 c150 0
192 -3 188 -12z m83 -90 l0 -102 -67 -68 c-60 -61 -93 -82 -93 -61 0 4 23 81
52 170 51 160 52 163 80 163 l28 0 0 -102z m120 84 c0 -10 5 -23 12 -30 10
-10 -1 -26 -50 -75 l-62 -62 0 93 0 92 50 0 c41 0 50 -3 50 -18z m410 -35 c21
-44 33 -56 77 -77 l53 -25 0 -97 c0 -150 -4 -150 -187 35 l-151 152 14 33 14
32 78 0 77 0 25 -53z m3070 30 c0 -42 51 -98 108 -117 l32 -12 0 -98 c0 -152
-3 -151 -187 32 l-151 151 16 34 16 33 83 0 c80 0 83 -1 83 -23z m-1940 -112
c16 -49 28 -90 26 -92 -2 -2 -21 34 -43 79 -29 59 -37 87 -30 96 5 7 12 11 14
9 2 -2 17 -44 33 -92z m-161 73 c0 -7 -20 -51 -45 -98 -48 -91 -49 -91 -14 15
23 72 36 95 51 95 5 0 9 -6 8 -12z m1740 -17 c37 -26 72 -34 102 -23 24 10 29
4 117 -129 50 -76 89 -139 86 -139 -7 0 -489 121 -490 123 -1 1 -4 26 -8 54
l-7 52 78 40 c43 22 82 40 86 41 5 0 21 -9 36 -19z m-1699 -131 l0 -139 -28
-15 c-15 -8 -33 -25 -39 -39 -15 -33 -49 -28 -73 11 l-20 32 72 145 c40 80 76
145 80 145 5 0 8 -63 8 -140z m109 -4 l69 -145 -16 -35 c-21 -45 -55 -49 -74
-9 -7 15 -26 34 -41 41 l-27 13 0 133 c0 116 3 146 16 146 2 0 35 -65 73 -144z
m-1474 124 c7 -11 -132 -447 -146 -455 -5 -4 -9 61 -9 162 l0 167 67 68 c69
70 77 75 88 58z m279 -141 c137 -142 145 -153 139 -182 -3 -18 -8 -35 -12 -38
-3 -3 -108 -41 -232 -83 l-226 -77 -32 31 -31 32 71 219 c63 193 75 219 93
219 12 0 32 7 46 14 14 8 28 14 32 15 3 1 72 -67 152 -150z m4718 119 l35 -33
-36 -73 c-24 -48 -40 -71 -49 -67 -8 3 -33 5 -56 5 -42 0 -42 1 -62 53 -10 28
-19 56 -19 60 0 6 68 45 151 87 1 0 17 -15 36 -32z m368 -14 l87 -46 -6 -35
c-5 -31 -11 -36 -61 -54 -30 -10 -55 -19 -57 -19 -1 0 -24 33 -51 73 l-50 73
22 26 c11 15 23 27 25 27 2 1 43 -20 91 -45z m-4151 -97 c-28 -86 -46 -127
-55 -127 -28 0 -74 -30 -79 -53 -6 -21 -10 -22 -127 -22 -114 0 -121 1 -129
21 -7 19 15 37 209 168 118 80 217 145 218 143 2 -2 -15 -60 -37 -130z m2687
1 c194 -130 195 -131 188 -162 -3 -17 -8 -33 -9 -36 -2 -3 -93 -5 -202 -5
l-200 0 -35 38 c-19 20 -39 37 -44 37 -5 0 -9 45 -9 100 l0 101 36 9 c20 6 44
19 54 30 10 11 20 20 22 20 3 0 92 -59 199 -132z m-4819 72 c-1 -3 -16 -35
-34 -72 l-31 -66 -40 5 c-23 3 -52 3 -66 -1 -41 -10 -95 -64 -108 -108 l-12
-40 -79 4 c-71 3 -81 5 -88 25 -7 20 8 33 159 134 92 62 184 125 205 141 l39
27 29 -21 c16 -12 28 -24 26 -28z m4423 -237 c0 -16 -13 -16 -62 -3 -32 9 -46
25 -120 138 -45 70 -87 134 -92 142 -4 8 55 -48 133 -125 77 -77 141 -145 141
-152z m-4093 137 c109 -114 110 -115 97 -145 l-12 -31 -154 1 -153 0 -3 126
-3 125 48 21 c26 12 53 21 59 20 6 -1 60 -54 121 -117z m1193 11 c45 -90 48
-100 33 -113 -9 -7 -23 -29 -31 -48 -13 -33 -15 -33 -28 -15 -8 10 -14 22 -14
27 0 4 -13 14 -30 23 l-30 16 0 98 c0 99 3 108 37 110 7 1 35 -44 63 -98z
m-1442 -59 c-3 -121 -4 -125 -25 -127 -17 -1 -25 8 -38 40 -8 23 -26 52 -40
65 l-24 22 36 73 c36 72 37 73 65 63 l29 -10 -3 -126z m5991 134 c36 6 36 5
69 -60 17 -37 32 -70 32 -74 0 -5 -48 -24 -107 -43 -87 -28 -107 -31 -111 -20
-3 8 -16 26 -30 40 l-25 25 36 72 36 73 32 -9 c18 -5 49 -7 68 -4z m-346 -73
l19 -52 -36 -35 c-19 -20 -39 -50 -44 -68 l-8 -32 -168 -1 -168 -2 -9 25 c-5
14 -8 26 -7 27 13 12 385 193 392 191 5 -1 18 -25 29 -53z m466 -5 c21 -31 27
-48 18 -48 -11 0 -57 78 -57 97 0 8 0 8 39 -49z m-5449 -158 c0 -138 -1 -150
-18 -150 -10 0 -23 -5 -30 -12 -10 -10 -19 -6 -42 18 -30 30 -30 30 -14 70 14
35 14 45 1 75 -14 34 -14 34 37 91 28 32 54 58 59 58 4 0 7 -67 7 -150z m2710
125 c0 -8 16 -33 37 -56 l36 -40 -32 -67 -33 -67 -62 0 c-53 0 -68 -4 -98 -27
-22 -17 -43 -46 -53 -73 l-18 -45 -189 0 -188 0 -11 27 c-25 65 -95 97 -152
68 -32 -16 -32 -16 -69 24 -35 36 -37 41 -27 69 9 27 18 32 62 42 129 28 773
158 785 159 6 1 12 -6 12 -14z m2920 6 c0 -6 -16 -22 -35 -36 -23 -19 -40 -25
-55 -20 -39 12 -9 34 88 64 1 1 2 -3 2 -8z m-2325 -66 c139 -36 256 -65 259
-65 3 0 23 -28 45 -62 l40 -63 -23 -24 -24 -23 -281 143 c-242 124 -302 159
-275 159 3 0 119 -29 259 -65z m2 -112 c147 -75 270 -138 272 -140 3 -2 -30
-39 -73 -82 l-78 -78 -36 19 c-37 19 -116 21 -152 5 -11 -5 -45 39 -137 180
l-122 188 21 22 c12 13 25 23 29 23 4 0 128 -61 276 -137z m2188 127 c-3 -5
-10 -10 -16 -10 -5 0 -9 5 -9 10 0 6 7 10 16 10 8 0 12 -4 9 -10z m199 0 c26
-9 26 -11 26 -120 0 -102 -1 -110 -19 -110 -30 0 -71 60 -71 103 0 20 -5 48
-12 62 -10 22 -8 29 12 50 26 28 29 29 64 15z m349 -329 c153 -207 235 -327
229 -333 -11 -11 -182 116 -225 167 -15 19 -42 38 -61 45 -18 6 -42 21 -53 33
-24 26 -157 420 -140 414 6 -2 119 -149 250 -326z m-593 309 c0 -5 -5 -10 -10
-10 -6 0 -18 -16 -27 -35 -16 -33 -20 -35 -70 -37 -105 -4 -108 -3 -111 12 -2
11 22 24 90 47 100 34 128 39 128 23z m374 -176 c31 -94 56 -174 56 -179 0 -4
-6 -2 -14 4 -7 6 -16 29 -20 50 -6 40 -52 91 -82 91 -11 0 -14 22 -14 112 0
65 4 108 9 103 5 -6 34 -87 65 -181z m-2756 -16 c145 -217 137 -200 110 -243
-13 -19 -28 -35 -33 -35 -6 0 -82 24 -170 53 l-160 54 -3 34 c-4 59 -11 78
-44 114 l-31 36 33 70 34 69 45 -6 c26 -3 57 -1 71 5 14 5 28 10 32 10 4 1 57
-72 116 -161z m596 103 c10 -17 16 -71 8 -71 -8 0 -62 73 -62 83 0 6 50 -5 54
-12z m-4676 -70 c30 -66 75 -94 148 -93 l55 0 49 -98 c45 -89 48 -100 33 -109
-14 -7 -37 4 -108 53 -67 47 -357 242 -372 251 -1 0 0 11 4 23 5 20 11 22 87
22 l81 0 23 -49z m352 39 c0 -5 -11 -10 -25 -10 -14 0 -25 5 -25 10 0 6 11 10
25 10 14 0 25 -4 25 -10z m348 -22 c11 -29 10 -35 -11 -55 l-22 -22 -145 37
c-110 29 -146 42 -148 55 -3 15 11 17 155 17 l159 0 12 -32z m1100 0 c16 -42
0 -60 -28 -33 -13 13 -17 28 -14 43 9 32 28 27 42 -10z m474 2 c17 -30 17 -31
-36 -143 l-53 -112 -62 1 -62 2 -46 95 -46 95 22 30 c11 17 21 37 21 46 0 14
17 16 123 16 l122 0 17 -30z m208 20 c0 -12 -8 -12 -35 0 -18 8 -17 9 8 9 15
1 27 -3 27 -9z m220 -3 c0 -22 -11 -26 -36 -15 -33 15 -30 28 6 28 18 0 30 -5
30 -13z m2570 -1 c0 -8 -52 -31 -143 -61 l-143 -49 -64 45 c-35 24 -68 47 -73
50 -5 4 -6 12 -3 18 5 7 74 11 217 11 170 0 209 -3 209 -14z m665 -18 l10 -33
-127 -87 -126 -88 -69 71 c-37 39 -67 76 -66 83 1 6 8 28 15 49 l13 37 170 0
171 0 9 -32z m475 28 c0 -2 -17 -15 -38 -30 l-39 -26 -46 17 c-75 28 -61 43
38 43 47 0 85 -2 85 -4z m-4791 -40 c10 -11 -2 -44 -58 -160 -38 -80 -73 -146
-78 -146 -4 0 -85 26 -179 57 -165 55 -172 58 -170 82 2 14 7 27 12 29 45 18
433 150 445 151 9 0 22 -5 28 -13z m860 -1 c9 -10 -256 -268 -268 -261 -7 4
10 47 47 121 51 104 59 115 83 115 15 0 37 9 50 20 22 19 71 21 88 5z m3925
-10 c-29 -22 -42 -17 -15 6 13 11 26 17 29 14 3 -3 -3 -12 -14 -20z m-6076 9
c21 -6 22 -11 22 -115 0 -60 -3 -109 -7 -109 -7 1 -91 127 -101 152 -4 7 49
78 58 78 3 0 15 -3 28 -6z m2323 -9 c0 -5 -9 -11 -21 -13 -20 -3 -27 8 -13 22
10 9 34 3 34 -9z m2241 -32 c32 -21 58 -41 58 -44 0 -3 -23 -12 -50 -21 -50
-16 -51 -16 -89 9 -30 19 -37 30 -34 48 4 18 30 41 52 44 3 1 31 -16 63 -36z
m414 -3 c20 -22 50 -44 68 -48 l31 -8 3 -87 c2 -69 0 -87 -11 -87 -8 0 -25 -9
-39 -19 l-24 -19 -154 104 c-85 58 -156 108 -158 112 -1 4 53 26 120 49 68 23
124 42 126 42 1 1 18 -17 38 -39z m-4784 -6 c65 -16 118 -31 118 -34 0 -3 -46
-51 -103 -108 l-102 -102 -33 12 -32 12 0 129 c0 118 2 129 18 125 9 -3 70
-18 134 -34z m1233 16 c19 -20 18 -22 -23 -63 l-42 -42 0 57 c0 54 6 65 36 67
6 1 19 -8 29 -19z m818 3 c15 -3 26 -9 25 -14 -4 -11 -340 -239 -352 -239 -6
0 50 61 124 135 106 107 139 135 155 130 11 -3 33 -8 48 -12z m302 -23 c47
-48 36 -50 -51 -7 -63 30 -64 32 -37 38 15 4 33 7 38 8 6 0 29 -17 50 -39z
m1859 34 c19 -7 22 -64 4 -64 -17 1 -51 48 -43 60 7 12 17 12 39 4z m1567 -12
c-7 -2 -18 1 -23 6 -8 8 -4 9 13 5 13 -4 18 -8 10 -11z m187 -16 c12 -4 22
-11 22 -16 0 -8 -87 16 -100 27 -2 2 2 8 10 13 9 6 20 4 30 -4 8 -8 25 -17 38
-20z m-6481 -142 c120 -91 221 -169 224 -172 4 -4 9 -23 13 -43 l6 -36 -195
-118 c-107 -65 -197 -116 -199 -114 -2 2 -30 141 -63 309 l-60 305 21 17 c12
10 24 18 28 18 3 0 105 -75 225 -166z m1663 98 l0 -67 -81 -80 -81 -80 55 110
c30 61 62 127 72 148 9 20 21 37 26 37 5 0 9 -30 9 -68z m1090 38 c30 -16 51
-29 45 -30 -18 0 -135 45 -135 52 0 15 36 6 90 -22z m3433 -69 c-284 -218
-291 -220 -218 -68 l46 95 53 0 c55 -1 99 16 130 51 17 19 20 19 48 5 l29 -15
-88 -68z m-5447 74 c9 -22 -3 -33 -31 -27 -25 4 -25 5 -9 23 20 23 33 24 40 4z
m159 -15 c25 -26 27 -32 15 -45 -22 -21 -150 10 -150 37 0 14 8 18 33 18 17 0
39 5 47 10 21 14 23 13 55 -20z m935 21 c0 -12 -20 -25 -27 -18 -7 7 6 27 18
27 5 0 9 -4 9 -9z m4787 -13 c24 -22 29 -43 14 -52 -13 -9 -101 24 -101 38 0
10 31 28 59 35 3 1 15 -9 28 -21z m-650 1 c8 -8 -7 -39 -55 -113 -55 -86 -71
-104 -101 -114 -35 -11 -37 -10 -74 30 -21 23 -34 44 -30 48 15 14 238 160
243 160 3 0 11 -5 17 -11z m-6267 -1 c0 -2 27 -140 60 -307 33 -167 60 -311
60 -320 -1 -10 -73 -60 -193 -132 l-193 -116 -35 32 c-20 18 -41 34 -48 36 -8
3 32 116 122 344 74 187 145 368 158 402 20 51 28 63 47 63 12 0 22 -1 22 -2z
m2283 -95 c30 -63 42 -101 36 -108 -6 -6 -38 19 -90 71 -71 71 -80 83 -74 107
6 23 12 27 45 27 l37 0 46 -97z m780 51 c115 -38 117 -39 117 -69 0 -16 8 -43
18 -60 l18 -29 -154 -236 -154 -235 -43 3 c-24 2 -53 -2 -66 -8 -21 -12 -30
-5 -144 116 l-121 128 19 35 c17 34 18 57 5 133 -2 12 50 53 182 142 102 69
190 124 195 122 6 -2 63 -21 128 -42z m1919 21 c14 -32 7 -39 -26 -24 -29 14
-31 20 -14 37 18 18 27 15 40 -13z m1756 4 c53 -18 62 -24 62 -45 l0 -24 -74
37 c-41 20 -73 40 -70 45 7 11 13 11 82 -13z m-836 -171 c-31 -20 -60 -34 -63
-30 -4 4 -19 47 -34 95 -27 85 -27 88 -9 102 17 13 25 8 91 -57 l72 -72 -57
-38z m-3806 159 c6 -16 -92 -217 -106 -217 -6 0 -10 28 -10 67 0 67 0 68 47
115 50 51 61 56 69 35z m4619 -39 c67 -33 85 -47 85 -64 0 -19 -23 -27 -266
-88 -236 -60 -311 -73 -264 -46 8 5 91 61 184 124 93 64 171 116 173 116 1 0
41 -19 88 -42z m-5700 22 c6 -10 -32 -137 -46 -156 -5 -6 -54 -26 -109 -44
-149 -49 -151 -36 -15 100 86 86 116 110 137 110 15 0 29 -4 33 -10z m4773
-99 c18 -51 29 -97 27 -102 -3 -4 -23 2 -44 14 l-40 22 -3 82 c-3 76 5 103 23
84 4 -3 20 -48 37 -100z m-848 84 c23 -12 30 -22 30 -45 0 -28 -7 -33 -101
-81 -136 -68 -145 -56 -43 55 44 47 80 85 82 86 2 0 16 -7 32 -15z m504 -100
c93 -63 165 -115 160 -115 -5 0 -111 34 -236 76 -258 86 -270 95 -170 131 31
12 62 22 67 22 6 1 86 -51 179 -114z m1476 59 c0 -27 -22 -32 -65 -12 -18 8
-25 19 -25 39 l0 28 45 -16 c37 -12 45 -19 45 -39z m-5790 29 c46 -12 60 -21
62 -37 3 -18 -9 -25 -91 -53 -52 -18 -96 -31 -98 -30 -8 8 43 137 54 137 7 0
40 -7 73 -17z m-521 -105 c16 -28 19 -38 9 -38 -12 0 -78 117 -78 138 0 7 32
-39 69 -100z m1667 -74 c-8 -16 -17 -37 -20 -46 -5 -16 -19 -18 -100 -18 l-94
0 34 108 c19 59 37 114 40 121 3 11 27 -7 80 -60 l75 -75 -15 -30z m-199 62
c-27 -82 -35 -96 -45 -83 -11 12 -5 30 30 101 23 47 43 84 45 82 1 -1 -12 -46
-30 -100z m4153 35 c-17 -33 -38 -61 -45 -61 -10 0 0 22 27 65 22 36 43 64 45
62 2 -3 -10 -32 -27 -66z m-2426 -6 c20 -51 61 -90 106 -100 l30 -7 0 -98 c0
-98 0 -100 -27 -114 -27 -14 -32 -11 -266 148 -132 88 -241 167 -244 174 -3 6
-3 19 1 27 4 13 36 15 194 15 l189 0 17 -45z m3041 25 c3 -5 1 -10 -4 -10 -6
0 -11 5 -11 10 0 6 2 10 4 10 3 0 8 -4 11 -10z m-4885 -52 c-1 -50 -3 -54 -37
-76 -26 -17 -44 -21 -64 -17 -16 4 -29 9 -29 13 0 6 121 132 127 132 2 0 3
-24 3 -52z m3410 -36 c185 -64 225 -81 228 -97 8 -53 15 -70 44 -97 l31 -29
-73 -297 c-94 -383 -88 -362 -108 -362 -9 0 -29 -6 -43 -14 -29 -15 -5 -38
-557 524 l-143 146 22 49 c16 37 20 60 16 97 l-6 48 100 51 c97 48 102 50 121
33 27 -25 83 -23 110 4 13 12 25 22 28 21 3 0 106 -35 230 -77z m1826 31 c-6
-7 -56 27 -56 39 0 5 14 0 31 -12 16 -12 28 -24 25 -27z m-5983 23 c6 -15
-260 -286 -281 -286 -17 0 -11 29 27 143 l28 82 99 37 c112 42 120 43 127 24z
m5710 -2 c72 -37 73 -22 -9 -266 -40 -121 -76 -223 -79 -226 -3 -3 -5 108 -5
246 l0 251 23 4 c12 2 26 5 30 6 4 0 22 -6 40 -15z m-2485 -156 c2 -36 -1 -47
-15 -53 -10 -4 -89 -31 -175 -60 l-157 -53 -38 117 -38 116 45 45 45 46 165
-57 165 -56 3 -45z m1612 43 l-12 -31 -84 0 c-81 0 -85 1 -94 26 -6 14 -10 28
-10 32 0 4 28 26 63 50 l62 42 44 -44 c43 -43 44 -45 31 -75z m-5510 7 c0 -9
-61 32 -115 77 -16 15 3 5 43 -21 39 -26 72 -51 72 -56z m1004 40 c112 -56
124 -64 124 -88 -2 -58 46 -97 105 -84 24 5 35 0 67 -31 37 -36 37 -37 24 -76
-20 -57 3 -111 57 -136 l39 -18 -2 -84 -3 -85 -32 -8 c-18 -5 -49 -24 -68 -44
l-35 -35 -392 160 c-216 88 -406 165 -422 170 -19 8 -26 16 -22 27 3 8 0 32
-8 54 l-13 39 134 140 134 140 36 -16 c41 -17 99 -6 123 22 7 8 16 15 21 15 5
0 65 -28 133 -62z m5256 -180 l-1 -243 -39 -18 -39 -18 -226 152 c-124 83
-227 154 -229 158 -2 3 -1 22 1 41 l5 35 256 66 c141 37 260 67 265 68 4 0 7
-108 7 -241z m-5193 200 c51 -18 93 -37 93 -41 0 -22 -37 -14 -116 27 -49 25
-85 45 -80 45 5 1 51 -14 103 -31z m2026 -133 c235 -158 237 -160 237 -195 0
-35 0 -35 -141 -108 -111 -56 -145 -70 -155 -61 -8 6 -28 14 -46 18 -32 7 -32
7 -111 245 -75 226 -78 238 -60 252 10 7 23 13 28 11 6 -1 117 -74 248 -162z
m3527 93 c0 -4 -20 2 -46 14 -40 20 -43 24 -28 35 15 11 22 9 46 -14 15 -15
28 -30 28 -35z m14 47 c11 -8 16 -18 12 -22 -3 -4 -16 3 -28 15 -25 25 -13 29
16 7z m-3885 -11 c31 -6 31 -8 108 -240 l76 -234 -21 -23 c-12 -13 -22 -29
-22 -35 0 -9 -59 -12 -229 -12 l-229 0 -21 42 c-11 23 -17 46 -14 52 48 84
299 456 308 456 7 0 27 -3 44 -6z m3797 -35 c55 -29 60 -34 56 -61 -2 -15 1
-42 8 -59 l13 -31 -141 -141 c-116 -116 -142 -138 -148 -123 -4 11 17 92 56
210 76 231 78 236 87 236 5 0 35 -14 69 -31z m-6158 -80 c-17 -52 -31 -94 -32
-95 -1 -1 -20 -4 -42 -8 -40 -6 -43 -4 -68 34 -17 26 -25 50 -23 71 2 31 5 33
97 64 52 18 96 31 97 30 2 -1 -11 -44 -29 -96z m3099 -34 c18 -54 35 -107 38
-116 8 -25 -30 -31 -51 -8 -9 10 -25 21 -35 24 -17 6 -19 17 -19 106 0 88 2
100 17 97 11 -2 27 -35 50 -103z m1813 67 c0 -7 -4 -10 -10 -7 -5 3 -10 16
-10 28 0 18 2 19 10 7 5 -8 10 -21 10 -28z m-3975 -2 c18 -8 17 -9 -7 -9 -16
-1 -28 4 -28 9 0 12 8 12 35 0z m30 -60 c9 -17 27 -35 41 -40 32 -12 27 -31
-10 -43 -25 -8 -33 -5 -68 30 -42 42 -44 68 -5 76 12 2 23 5 24 6 1 0 10 -13
18 -29z m363 -7 c3 -19 -10 -29 -87 -68 -50 -25 -94 -45 -98 -45 -5 1 -19 9
-31 20 -24 20 -24 20 -7 70 l17 51 101 -3 c97 -3 102 -4 105 -25z m3614 -24
c15 -45 15 -51 1 -56 -8 -3 -25 5 -40 20 -24 23 -25 28 -13 56 18 44 34 38 52
-20z m168 38 c0 -7 -12 -30 -26 -51 -20 -30 -31 -37 -47 -32 -12 3 -30 6 -40
6 -16 0 -24 13 -41 68 -7 22 -6 22 73 22 59 0 81 -3 81 -13z m1398 -32 c28
-20 52 -38 52 -40 0 -3 -27 8 -60 25 -33 17 -60 35 -60 40 0 16 13 12 68 -25z
m-6672 -22 c20 -27 16 -38 -6 -18 -20 18 -26 35 -14 35 4 0 13 -8 20 -17z
m3693 -6 c-2 -2 -75 -52 -162 -111 -106 -72 -159 -103 -162 -94 -26 72 -34
102 -29 107 14 15 340 118 348 110 5 -5 8 -10 5 -12z m1582 -10 c-13 -12 -20
-15 -16 -7 14 26 28 41 33 35 3 -3 -5 -16 -17 -28z m1404 -9 l85 -43 -6 -50
c-4 -27 -8 -52 -10 -53 -5 -7 -348 -91 -352 -87 -2 2 8 41 23 87 44 137 44
138 75 138 15 0 42 11 61 24 19 13 35 25 36 25 2 1 41 -18 88 -41z m-6877 15
c-9 -34 -270 -418 -282 -414 -6 1 -31 6 -56 10 l-44 6 -17 85 c-10 47 -14 88
-11 92 18 17 389 238 401 238 8 0 11 -7 9 -17z m1428 -10 c-10 -10 -19 5 -10
18 6 11 8 11 12 0 2 -7 1 -15 -2 -18z m4484 -131 c234 -157 236 -159 228 -167
-3 -3 -140 29 -304 71 -164 43 -311 79 -326 82 -21 3 -28 10 -28 28 0 13 -5
35 -12 49 -10 23 -9 29 15 52 23 24 29 25 52 15 37 -17 75 -15 110 7 17 10 35
16 40 13 6 -3 107 -70 225 -150z m-4184 127 c25 -28 75 -49 118 -49 20 0 36
-6 39 -14 38 -100 137 -419 131 -427 -3 -6 -14 -9 -23 -6 -9 2 -120 74 -247
161 l-231 156 1 54 0 54 91 45 c49 25 93 46 96 46 3 1 14 -9 25 -20z m3524
-14 c20 -21 22 -28 12 -50 -18 -39 -14 -89 8 -118 l20 -26 -154 -235 c-86
-130 -159 -236 -164 -236 -5 0 -1 33 8 73 91 380 146 590 155 592 5 1 24 7 40
13 45 15 49 14 75 -13z m1382 19 c5 -4 -68 -240 -77 -252 -2 -2 -47 -14 -101
-28 -97 -25 -113 -23 -114 10 0 13 262 276 275 276 6 0 14 -3 17 -6z m-6553
-14 c14 0 22 -21 41 -100 13 -55 22 -101 19 -103 -113 -80 -360 -239 -365
-235 -3 3 47 95 111 205 151 257 144 246 162 239 8 -3 22 -6 32 -6z m94 -24
c21 -15 25 -25 20 -40 -4 -12 -8 -41 -8 -65 0 -69 -20 -59 -38 21 -10 40 -20
84 -24 97 -7 26 -3 25 50 -13z m3592 -126 c-83 -83 -152 -150 -156 -150 -11 0
-31 82 -22 91 20 20 318 217 323 213 2 -3 -63 -72 -145 -154z m-1695 15 c98
-98 122 -127 112 -137 -16 -16 -16 -100 0 -116 10 -10 4 -21 -27 -52 -36 -35
-44 -39 -76 -34 l-36 6 -70 219 c-63 195 -69 220 -54 229 9 5 18 10 21 10 3 0
61 -56 130 -125z m1895 95 c49 -25 98 -25 153 0 l43 20 332 -337 c258 -261
331 -341 328 -357 -2 -12 -4 -44 -5 -72 -1 -46 -4 -53 -39 -77 -26 -19 -50
-27 -78 -27 -33 0 -47 -6 -75 -34 -19 -19 -34 -41 -34 -50 0 -14 -34 -16 -324
-16 l-324 0 -12 29 c-17 43 -45 64 -92 70 l-42 6 -90 278 -90 278 154 154 c85
85 155 155 155 155 1 0 18 -9 40 -20z m-439 -92 c9 -29 19 -58 21 -64 2 -6 -4
-14 -13 -18 -12 -5 -28 3 -50 24 -29 29 -31 34 -20 63 11 31 23 47 38 47 3 0
14 -24 24 -52z m2281 -99 c323 -82 323 -82 323 -109 0 -14 7 -35 14 -46 14
-18 5 -29 -136 -171 -138 -138 -153 -151 -175 -142 -14 5 -34 7 -46 4 -19 -4
-42 26 -185 245 -160 247 -162 251 -146 275 9 14 19 25 22 25 4 0 152 -37 329
-81z m-5117 -47 c242 -98 554 -225 556 -226 1 -1 -1 -19 -5 -40 l-6 -40 -85
-23 c-67 -19 -98 -23 -147 -18 -73 8 -120 -5 -153 -40 -16 -17 -52 -31 -134
-51 l-113 -27 -22 22 c-12 12 -34 24 -50 27 -27 6 -31 15 -106 241 l-77 235
27 28 c22 22 32 27 49 20 11 -4 131 -53 266 -108z m2545 38 l-80 -80 -61 0
c-33 0 -64 3 -68 7 -6 6 256 149 279 152 5 0 -26 -35 -70 -79z m3729 63 c4 -9
3 -20 -1 -24 -4 -4 -98 -69 -207 -143 -194 -131 -200 -134 -221 -118 l-22 17
30 90 c16 49 31 92 33 93 2 3 339 93 375 101 4 0 10 -7 13 -16z m-3610 -9 c26
-10 20 -59 -9 -72 -14 -7 -30 -23 -37 -37 -10 -22 -18 -25 -60 -25 -26 0 -48
3 -48 7 0 10 122 133 131 133 4 0 14 -3 23 -6z m111 -24 c16 -16 27 -31 24
-33 -2 -1 -12 -8 -21 -15 -14 -11 -22 -10 -47 3 -35 17 -41 48 -13 64 24 15
25 14 57 -19z m-1724 -142 c131 -89 239 -168 239 -175 0 -10 -42 -13 -207 -13
l-208 1 -25 52 c-24 50 -54 74 -112 91 -15 5 -18 18 -18 88 l0 83 38 17 c20 9
41 17 45 17 5 1 116 -72 248 -161z m-1551 148 c0 -3 -4 -8 -10 -11 -5 -3 -10
-1 -10 4 0 6 5 11 10 11 6 0 10 -2 10 -4z m54 -2 c9 -3 16 -16 16 -27 0 -26
-32 -178 -37 -174 -1 2 -12 39 -23 82 l-20 79 22 23 c24 26 21 25 42 17z
m5341 -259 l163 -248 -17 -28 -16 -29 -337 0 -336 0 -11 28 c-6 15 -16 34 -22
42 -9 13 18 60 144 250 l155 235 58 -1 57 -2 162 -247z m-6020 223 c30 -132
31 -148 10 -148 -26 0 -83 -60 -101 -105 l-17 -45 -126 0 -126 0 -16 45 -17
45 142 86 c77 47 161 99 186 115 54 35 58 35 65 7z m838 -217 l77 -240 -22
-24 c-25 -26 -43 -24 -115 16 l-33 18 0 234 c0 129 3 235 8 235 4 0 42 -108
85 -239z m6611 218 l24 -21 -140 -282 -141 -283 -72 0 -72 0 -41 83 -42 84 26
37 c21 31 25 46 21 83 l-5 45 202 137 c110 75 204 137 208 137 5 1 19 -8 32
-20z m-6864 3 c0 -4 -76 -83 -170 -177 -93 -93 -167 -160 -164 -149 3 11 -1
38 -9 61 l-14 40 171 116 c168 114 186 125 186 109z m3414 -8 c11 -27 7 -37
-9 -24 -16 14 -20 40 -6 40 5 0 12 -7 15 -16z m-3276 -311 l-3 -108 -24 93
-23 93 23 117 24 117 3 -102 c1 -56 1 -151 0 -210z m3257 267 l29 -30 -52 0
c-59 0 -75 15 -41 41 31 24 30 24 64 -11z m-3355 -93 c22 -97 22 -99 4 -198
-14 -81 -20 -99 -33 -95 -9 3 -81 21 -161 42 -80 20 -149 39 -153 41 -5 3 63
77 149 164 87 87 161 156 165 151 4 -4 17 -51 29 -105z m6330 31 c-27 -78 -30
-83 -62 -90 -18 -3 -42 -9 -53 -13 -14 -4 -28 1 -44 19 -21 22 -23 29 -13 51
7 14 12 36 12 49 0 21 9 26 78 44 120 31 115 35 82 -60z m-3660 0 c0 -6 8 -20
17 -30 16 -18 15 -22 -10 -73 l-26 -54 -217 75 c-119 41 -219 74 -220 74 -2 0
-4 5 -4 10 0 6 83 10 230 10 169 0 230 -3 230 -12z m220 -43 c-30 -30 -57 -55
-61 -55 -12 0 -29 49 -18 56 6 3 14 17 19 30 8 21 16 24 62 24 l52 0 -54 -55z
m220 45 c0 -9 -259 -144 -265 -138 -2 2 27 35 63 75 l67 72 68 1 c38 0 67 -4
67 -10z m225 -40 c-27 -27 -52 -50 -55 -50 -3 0 -11 9 -18 20 -10 17 -10 26 3
50 14 27 20 30 67 30 l52 0 -49 -50z m65 -102 l0 -133 -51 78 -52 77 49 54
c27 30 50 54 52 55 1 1 2 -59 2 -131z m-994 42 c115 -39 215 -72 222 -75 9 -3
3 -24 -22 -73 -32 -63 -37 -69 -61 -65 -14 3 -39 0 -56 -7 l-31 -13 -138 138
c-83 83 -136 143 -133 151 3 8 6 14 8 14 2 0 97 -32 211 -70z m730 56 c6 -15
-101 -236 -114 -236 -5 0 -35 9 -68 20 -51 17 -63 26 -78 57 -9 19 -14 38 -11
41 8 8 249 131 258 132 4 0 10 -6 13 -14z m-396 -44 c0 -21 -7 -32 -25 -40
-30 -14 -31 -7 -5 36 24 39 30 40 30 4z m58 -12 c11 -30 7 -35 -22 -24 -16 6
-22 45 -10 57 11 10 21 -1 32 -33z m438 8 c15 -29 15 -29 -67 -119 -70 -77
-105 -101 -112 -79 -1 3 23 55 52 116 50 104 55 111 83 111 22 0 33 -7 44 -29z
m-1206 15 c-1 -5 -16 -37 -34 -72 l-33 -65 -10 30 c-9 26 -6 33 26 71 35 39
52 52 51 36z m300 -164 c69 -73 106 -120 101 -127 -5 -9 -66 8 -227 63 -120
41 -220 75 -221 75 -2 0 13 32 32 70 31 62 38 70 59 64 12 -3 38 1 57 9 41 17
35 22 199 -154z m1175 -58 c40 -122 69 -221 65 -221 -19 0 -47 56 -43 85 6 39
-31 95 -75 114 l-32 15 0 119 c0 66 3 118 6 114 3 -3 39 -105 79 -226z m2426
90 c-51 -101 -65 -122 -88 -127 -15 -4 -54 -18 -87 -30 -32 -13 -63 -21 -68
-18 -6 4 59 76 143 160 85 85 155 150 157 145 2 -5 -24 -64 -57 -130z m208 82
c15 -23 21 -46 19 -70 l-3 -36 -118 -40 c-65 -21 -120 -37 -123 -34 -3 2 18
51 47 108 l51 104 52 1 c49 1 53 -1 75 -33z m39 -8 c-3 -3 -13 7 -23 22 l-17
28 23 -22 c12 -12 20 -25 17 -28z m-2869 -111 l38 -80 -21 -27 -22 -27 -94 31
c-52 18 -97 34 -99 36 -7 6 142 154 152 150 5 -1 25 -39 46 -83z m-666 -56
c-21 -21 -39 -35 -41 -30 -1 4 12 39 29 78 l32 69 9 -39 c8 -37 6 -42 -29 -78z
m711 57 c37 -55 44 -75 27 -75 -8 0 -71 111 -71 125 0 12 10 1 44 -50z m-3291
-38 l15 -68 -31 7 c-18 3 -34 8 -36 10 -2 2 3 33 10 69 7 36 16 62 20 58 4 -5
14 -39 22 -76z m2797 62 c0 -6 -4 -7 -10 -4 -5 3 -10 11 -10 16 0 6 5 7 10 4
6 -3 10 -11 10 -16z m-3586 -15 c15 -40 9 -41 -125 -17 -73 12 -134 25 -137
28 -3 3 53 5 125 5 110 0 132 -3 137 -16z m2524 -9 c7 -14 23 -30 37 -37 35
-16 33 -53 -4 -73 -16 -8 -31 -19 -33 -25 -5 -15 -428 131 -428 148 0 9 48 12
208 12 l209 0 11 -25z m1095 -51 c9 -19 13 -34 9 -34 -13 0 -83 76 -76 82 12
13 52 -15 67 -48z m-3728 16 c113 -19 135 -26 163 -51 l32 -29 -32 -64 c-26
-54 -34 -63 -52 -57 -12 3 -82 43 -158 89 l-136 82 11 30 c7 19 17 28 27 26 8
-2 74 -14 145 -26z m3255 -131 c0 -5 -98 -9 -230 -9 -211 0 -231 2 -237 18 -3
9 -12 24 -18 32 -11 12 -9 25 10 67 l23 52 226 -75 c124 -42 226 -80 226 -85z
m-1364 143 c-2 -4 -36 -23 -75 -42 l-71 -34 -21 21 -21 20 79 21 c85 22 117
26 109 14z m862 -37 c-22 -45 -38 -50 -38 -12 0 18 28 45 57 56 2 1 -7 -19
-19 -44z m-343 -35 c166 -55 211 -74 211 -88 0 -9 3 -26 7 -37 6 -17 -20 -48
-142 -169 -133 -133 -150 -147 -169 -137 -32 17 -87 13 -115 -9 l-25 -20 -61
42 -61 42 0 173 c0 157 2 174 18 179 45 14 87 41 101 66 9 16 18 28 21 28 3 0
100 -32 215 -70z m1400 48 c48 -17 48 -24 -1 -23 -28 1 -49 7 -55 16 -14 22
-11 32 9 24 9 -4 31 -12 47 -17z m3214 8 c9 -10 -2 -34 -50 -107 -34 -52 -63
-96 -65 -98 -2 -3 -38 6 -79 19 -68 21 -75 26 -75 49 0 23 14 33 123 88 67 34
125 62 128 62 4 1 12 -5 18 -13z m-6394 -51 c88 -30 147 -53 130 -50 -109 17
-340 57 -342 59 -6 6 30 46 40 46 7 0 84 -25 172 -55z m2929 49 c12 -5 16 -21
16 -70 l0 -64 -45 0 c-41 0 -46 3 -59 33 -13 31 -12 33 22 70 38 39 41 41 66
31z m122 -30 l36 -35 -17 -35 c-15 -33 -19 -35 -58 -32 l-42 3 -3 59 c-3 59 5
75 36 76 7 0 29 -16 48 -36z m3154 -13 c-69 -36 -98 -46 -108 -39 -7 6 -10 13
-8 16 7 6 188 70 201 71 6 0 -33 -22 -85 -48z m-4899 9 c16 -16 45 -32 64 -36
l35 -6 0 -170 c0 -133 -3 -168 -12 -162 -7 4 -73 48 -146 96 -120 80 -132 91
-125 111 4 12 8 45 7 73 l-1 51 71 36 c39 20 72 36 74 36 2 1 17 -12 33 -29z
m-1203 -9 c74 -19 90 -27 80 -36 -2 -3 -42 8 -89 24 -98 34 -94 39 9 12z
m3157 10 c3 -5 1 -12 -5 -16 -5 -3 -10 1 -10 9 0 18 6 21 15 7z m3211 -5 c1 0
28 -42 61 -91 l61 -91 -23 -26 c-13 -15 -25 -32 -27 -39 -4 -13 -238 59 -238
74 0 4 27 48 61 98 52 78 63 89 82 83 12 -3 22 -7 23 -8z m82 -51 c43 -88 40
-92 -11 -15 -40 60 -47 80 -29 80 4 0 22 -29 40 -65z m-7221 -48 c40 -23 72
-44 73 -47 0 -3 -21 -13 -46 -24 l-46 -19 -79 79 c-60 59 -76 81 -68 91 9 10
19 8 53 -13 22 -14 73 -44 113 -67z m4076 54 c53 -18 97 -37 97 -42 0 -5 -46
-9 -103 -9 l-103 0 -16 34 c-17 34 -8 62 17 53 5 -2 54 -19 108 -36z m-3442
-11 c101 -17 189 -33 196 -35 6 -2 9 -12 7 -22 -4 -15 -33 -26 -137 -51 -73
-18 -137 -32 -144 -32 -10 0 -79 94 -117 158 -10 16 -16 17 195 -18z m-162
-73 c35 -52 48 -79 39 -82 -7 -2 -55 -15 -105 -28 l-93 -24 -41 25 -41 24 88
89 c49 49 91 85 95 81 3 -4 30 -42 58 -85z m436 82 c4 -6 5 -12 2 -15 -7 -7
-37 7 -37 17 0 13 27 11 35 -2z m585 -8 c0 -36 -12 -41 -98 -41 -47 0 -83 3
-80 6 6 6 144 42 166 43 6 1 12 -3 12 -8z m-1150 -5 c0 -11 -115 -126 -126
-126 -19 0 -19 1 22 69 33 55 39 61 70 61 19 0 34 -2 34 -4z m750 -32 c0 -2
-7 -4 -15 -4 -8 0 -15 4 -15 10 0 5 7 7 15 4 8 -4 15 -8 15 -10z m5530 6 c0
-5 -9 -10 -21 -10 -11 0 -17 5 -14 10 3 6 13 10 21 10 8 0 14 -4 14 -10z
m-5730 -20 c0 -5 -7 -10 -15 -10 -8 0 -15 5 -15 10 0 6 7 10 15 10 8 0 15 -4
15 -10z m594 -26 c11 -27 7 -34 -29 -51 -35 -17 -36 -16 -105 17 -39 19 -70
37 -70 42 0 4 45 8 99 8 81 0 100 -3 105 -16z m1806 0 c0 -9 15 -31 34 -50 25
-25 43 -34 68 -34 l33 0 56 -167 56 -168 -56 -167 c-54 -165 -56 -168 -84
-168 -35 0 -67 -16 -88 -43 -17 -20 -18 -20 -232 53 l-215 74 -6 35 c-7 48
-31 80 -72 97 l-34 14 0 235 c0 175 3 235 12 235 16 0 58 41 58 57 0 10 47 13
235 13 209 0 235 -2 235 -16z m320 -76 l0 -92 -60 59 c-32 32 -57 62 -55 65 2
4 9 19 14 34 9 23 16 26 56 26 l45 0 0 -92z m128 60 c12 -32 11 -34 -48 -93
l-60 -60 0 93 0 92 48 0 c45 0 48 -2 60 -32z m432 24 c0 -5 -24 -16 -52 -25
-49 -15 -56 -15 -105 0 -29 9 -53 20 -53 25 0 4 47 8 105 8 58 0 105 -4 105
-8z m2236 -9 c9 -15 -11 -41 -137 -172 -143 -149 -149 -154 -174 -143 -33 15
-67 15 -101 0 -25 -12 -29 -9 -117 82 -201 210 -182 185 -167 219 l12 31 337
0 c309 0 337 -1 347 -17z m-5506 -12 c0 -5 -11 -11 -25 -13 -28 -6 -35 8 -7
15 28 8 32 7 32 -2z m227 -6 c2 -6 -54 -67 -124 -137 -158 -158 -176 -159
-104 -5 46 99 52 107 79 107 15 0 44 11 63 25 33 25 79 30 86 10z m5467 6 c17
-7 16 -10 -13 -30 -38 -27 -50 -21 -31 14 14 27 15 27 44 16z m264 -22 c83
-28 79 -42 -5 -18 -38 10 -71 19 -75 19 -5 0 -8 5 -8 10 0 15 19 12 88 -11z
m-6038 1 c0 -5 -6 -10 -12 -10 -7 0 -31 -2 -53 -5 l-40 -5 45 14 c57 18 60 18
60 6z m518 -19 c29 -16 50 -31 45 -34 -4 -3 -111 -58 -236 -122 -190 -98 -230
-115 -243 -104 -13 11 3 31 112 140 l128 128 40 -5 c28 -4 47 -1 61 10 27 21
31 20 93 -13z m2674 11 c4 -4 -37 -23 -93 -41 -55 -18 -103 -30 -106 -28 -11
12 9 27 35 27 31 0 92 34 92 51 0 12 58 5 72 -9z m195 -12 c26 -23 43 -30 76
-30 24 0 48 5 55 12 10 10 19 5 44 -20 24 -23 29 -35 21 -43 -8 -8 -40 -2
-125 26 -62 21 -126 44 -143 51 l-30 13 25 10 c37 14 39 14 77 -19z m2458 8
c24 -11 25 -14 25 -115 0 -102 0 -103 -24 -103 -21 0 -31 13 -65 80 -23 44
-41 84 -41 89 0 8 67 61 77 61 1 0 14 -5 28 -12z m-5786 -100 c-71 -146 -83
-144 -53 9 17 86 19 88 81 92 21 1 20 -5 -28 -101z m1835 96 c14 -5 16 -36 16
-240 l0 -234 -32 -15 c-18 -8 -40 -20 -49 -26 -13 -10 -37 -1 -128 47 -107 56
-111 60 -106 86 4 16 0 40 -8 57 l-15 29 145 151 c80 83 148 151 153 151 5 0
15 -3 24 -6z m3794 -9 c6 -3 12 -9 12 -14 0 -8 -293 -213 -350 -245 -8 -5 46
54 120 131 130 135 136 140 170 136 19 -3 41 -6 48 -8z m-5801 -1 c-3 -3 -12
-4 -19 -1 -8 3 -5 6 6 6 11 1 17 -2 13 -5z m824 -24 c51 -51 128 -60 188 -23
23 15 27 13 157 -118 73 -74 131 -135 129 -137 -3 -4 -187 87 -403 200 -145
76 -152 81 -130 93 13 7 24 13 26 14 2 1 17 -12 33 -29z m5297 13 c39 -9 72
-19 72 -22 0 -3 -24 -44 -54 -91 -34 -53 -56 -79 -59 -70 -7 21 -47 188 -47
195 0 8 9 7 88 -12z m-6024 -60 c-24 -118 -22 -113 -54 -113 -16 0 -40 -4 -53
-9 -23 -9 -28 -5 -69 57 -25 37 -46 72 -47 77 -1 6 44 20 101 31 150 32 138
36 122 -43z m2738 0 l67 -68 -24 -72 c-12 -40 -26 -81 -30 -90 -5 -13 -22 27
-56 131 -63 194 -59 202 43 99z m243 57 c15 -24 -7 -58 -47 -69 -22 -7 -47
-15 -57 -18 -9 -3 6 17 34 46 51 53 60 58 70 41z m447 -42 c87 -29 158 -56
158 -60 0 -5 -135 -8 -301 -8 -279 0 -300 1 -297 17 2 12 39 30 123 60 66 23
129 42 140 42 10 1 90 -23 177 -51z m178 42 c0 -5 -2 -10 -4 -10 -3 0 -8 5
-11 10 -3 6 -1 10 4 10 6 0 11 -4 11 -10z m1065 -10 c-10 -11 -21 -17 -24 -14
-3 3 3 12 13 20 28 20 32 17 11 -6z m117 2 l37 -4 32 -95 c17 -52 29 -96 27
-99 -3 -2 -45 10 -95 27 -86 29 -91 32 -96 62 -3 18 -8 41 -12 52 -8 26 33 77
55 68 8 -4 32 -8 52 -11z m355 -276 c-5 -13 -22 -10 -114 23 l-108 37 -38 109
c-29 84 -34 110 -25 117 18 11 293 -264 285 -286z m1070 267 c-7 -6 -67 9 -67
17 0 5 16 3 35 -3 19 -6 33 -12 32 -14z m-5096 -84 c145 -97 150 -101 147
-132 -6 -62 -33 -47 -178 98 -74 74 -131 135 -127 135 4 0 75 -45 158 -101z
m4839 -76 c0 -7 -9 -13 -20 -13 -19 0 -20 6 -19 88 l0 87 19 -75 c11 -41 19
-81 20 -87z m428 49 c2 -23 1 -42 -1 -42 -2 0 -77 -25 -167 -56 l-163 -55 -27
33 -27 32 64 97 64 96 127 -31 127 -32 3 -42z m-5473 -44 c269 -135 283 -144
283 -170 -1 -33 24 -74 52 -83 19 -6 20 -14 20 -209 l0 -203 -42 -13 c-25 -7
-57 -28 -77 -48 l-34 -36 -96 49 c-53 28 -276 144 -497 259 l-401 209 9 37 c6
22 6 50 0 71 l-9 34 241 122 c133 67 247 122 254 122 7 1 141 -63 297 -141z
m4863 56 l43 -86 -31 -35 c-17 -19 -33 -48 -37 -64 l-5 -29 -194 0 c-188 0
-193 0 -199 21 -5 14 -2 25 6 30 8 4 93 62 189 128 96 66 177 120 180 121 3 0
25 -39 48 -86z m-5978 -8 c51 -78 51 -79 32 -98 -19 -19 -21 -18 -146 57 -70
43 -125 79 -122 82 5 5 167 41 178 39 4 -1 30 -37 58 -80z m-140 -52 c77 -47
140 -90 140 -95 0 -4 -74 17 -165 48 -123 42 -164 60 -160 71 3 7 5 25 5 38 0
40 30 30 180 -62z m3305 76 c-3 -5 -18 -10 -33 -9 -24 0 -25 1 -7 9 28 12 47
12 40 0z m-15 -37 c0 -22 -103 -313 -111 -313 -10 0 -13 303 -2 313 9 10 113
9 113 0z m651 -31 c11 -26 27 -44 52 -56 l37 -17 0 -272 0 -272 -77 -78 c-70
-72 -78 -77 -108 -71 -20 3 -44 0 -61 -9 -29 -14 -31 -12 -269 150 l-240 164
0 54 c0 47 -4 58 -32 87 l-32 33 49 150 c28 83 52 156 55 163 3 9 74 12 307
12 l303 0 16 -38z m829 34 c0 -4 -138 -96 -146 -96 -3 0 -22 12 -41 28 -31 23
-46 27 -98 27 -51 0 -69 -5 -104 -28 l-43 -29 -69 46 c-38 26 -69 48 -69 51 0
3 128 5 285 5 157 0 285 -2 285 -4z m-485 -94 c-3 -3 -124 55 -134 64 -1 1 0
7 3 13 4 6 32 -6 71 -32 35 -23 62 -43 60 -45z m524 64 c-13 -10 -123 -65
-125 -63 -2 1 25 22 59 45 34 23 63 38 65 32 2 -6 2 -12 1 -14z m331 -44 l105
-37 34 -102 c54 -161 44 -160 -121 4 -100 100 -139 146 -135 157 4 9 8 16 9
16 2 0 50 -17 108 -38z m-907 -23 l83 -42 -4 -56 c-2 -42 2 -66 17 -96 l21
-40 -142 -142 c-79 -79 -146 -143 -151 -143 -4 0 -6 116 -5 258 3 254 3 257
24 260 12 2 30 12 40 23 9 10 21 19 25 19 5 0 46 -19 92 -41z m620 19 c21 -15
47 -23 73 -23 l42 0 61 -123 c34 -67 61 -124 61 -126 0 -3 -423 104 -426 107
-1 1 -4 25 -8 53 l-6 52 77 40 c43 22 82 41 86 41 5 1 23 -9 40 -21z m1826
-233 c-130 -197 -110 -181 -210 -174 l-36 3 -21 91 c-16 66 -20 107 -15 156
l5 65 167 56 166 55 31 -35 31 -36 -118 -181z m-3529 115 c0 -66 -4 -120 -8
-120 -5 0 -16 24 -25 52 -16 51 -16 55 5 120 12 38 23 68 25 68 2 0 3 -54 3
-120z m2120 -165 c-1 -30 -16 -33 -81 -18 l-66 16 -66 134 c-37 73 -67 139
-67 145 0 7 63 -50 140 -127 77 -77 140 -144 140 -150z m-3573 233 c31 -21 40
-33 36 -48 -7 -28 -27 -25 -41 5 -7 14 -23 30 -37 37 -14 6 -25 20 -25 30 0
21 1 21 67 -24z m3771 -84 c1 -16 8 -39 14 -52 10 -19 8 -26 -17 -52 -19 -20
-32 -27 -40 -20 -6 5 -29 13 -50 18 -38 8 -39 8 -71 104 l-32 96 97 -32 c90
-31 96 -34 99 -62z m1379 58 c10 -6 -6 -99 -62 -387 -41 -208 -76 -379 -77
-380 -2 -2 -23 -5 -49 -9 l-45 -7 -29 61 -29 60 32 33 c37 39 52 75 52 128 0
41 -27 106 -54 128 -13 11 1 37 107 197 67 101 127 184 132 184 6 0 16 -4 22
-8z m-5117 -87 c0 -8 14 -30 31 -50 20 -22 29 -41 25 -51 -4 -9 -8 -15 -10
-13 -1 2 -21 25 -44 50 -28 31 -40 52 -36 63 8 20 34 21 34 1z m4360 3 c0 -7
3 -23 6 -35 5 -18 -5 -29 -64 -68 l-69 -46 -136 67 c-91 45 -133 72 -130 81 7
19 393 19 393 1z m-2984 -66 c4 -21 3 -32 -5 -32 -18 0 -51 -62 -51 -98 0 -18
5 -43 11 -54 9 -17 6 -25 -20 -51 -54 -54 -54 -25 -4 136 26 81 50 144 55 139
4 -4 11 -22 14 -40z m1787 -23 l209 -52 80 -162 81 -162 -49 -153 c-46 -144
-51 -154 -78 -161 -73 -20 -100 -96 -51 -144 13 -14 29 -25 35 -25 5 0 10 -12
10 -27 -1 -20 -10 -34 -33 -49 l-33 -20 -124 50 -124 51 -32 95 c-179 534
-235 715 -225 718 21 7 66 50 81 76 8 16 20 24 29 22 9 -3 110 -29 224 -57z
m-2838 -6 c110 -55 115 -59 113 -88 -1 -16 1 -39 5 -50 5 -16 -2 -25 -37 -48
-26 -16 -57 -27 -79 -27 l-37 0 -59 119 c-55 110 -58 119 -43 135 9 9 18 16
19 16 2 0 54 -26 118 -57z m3755 -5 c66 -35 119 -65 119 -68 0 -7 -170 -122
-174 -118 -1 2 -26 50 -54 107 -50 98 -51 104 -35 122 9 10 19 19 21 19 2 0
58 -28 123 -62z m-4086 3 l48 -49 -53 -161 c-42 -127 -57 -161 -71 -161 -17 0
-18 15 -18 204 0 206 1 213 35 215 6 1 32 -21 59 -48z m3808 23 c7 -6 -44
-164 -53 -164 -3 0 -4 11 -2 24 3 14 0 41 -7 61 -11 33 -10 39 11 61 22 23 40
30 51 18z m-3591 -125 c33 -67 58 -124 54 -127 -3 -3 -49 37 -101 89 -84 84
-95 98 -89 122 5 20 14 27 38 30 18 2 33 5 34 5 2 1 30 -52 64 -119z m4133 70
c-42 -42 -55 -49 -69 -42 -15 9 -10 16 41 51 80 55 89 52 28 -9z m320 -48 c9
-40 15 -76 12 -78 -3 -3 -21 27 -41 67 -35 69 -36 73 -19 91 22 25 26 18 48
-80z m-824 -11 l0 -101 -30 16 c-16 9 -30 21 -30 29 0 10 22 82 45 144 11 30
15 5 15 -88z m110 -6 c28 -59 50 -108 50 -110 0 -2 -11 -11 -25 -20 -24 -16
-28 -16 -65 1 l-40 18 0 109 c0 144 13 144 80 2z m492 80 c19 -10 53 -16 85
-15 l53 1 24 -48 c40 -79 40 -86 6 -121 l-31 -31 -117 60 c-164 83 -154 72
-102 125 24 25 46 45 48 45 1 0 17 -7 34 -16z m-1806 -10 c-3 -8 -69 -111
-147 -229 -157 -238 -172 -251 -167 -137 l3 65 153 159 c85 87 156 158 159
158 3 0 2 -7 -1 -16z m112 -22 l52 -4 125 -383 c69 -210 125 -385 125 -388 0
-8 -17 -2 -360 138 -146 59 -271 109 -277 112 -7 3 -13 13 -13 22 0 9 -7 29
-15 44 -14 28 -13 31 133 253 109 166 151 222 162 218 8 -4 39 -9 68 -12z
m730 -22 c38 -10 42 -14 42 -41 0 -22 10 -41 33 -64 l33 -33 -22 -63 -22 -64
-66 138 c-36 76 -66 140 -66 142 0 2 6 2 13 0 6 -2 31 -9 55 -15z m-3250 -208
c-9 -24 -36 -49 -100 -93 -47 -32 -89 -59 -93 -59 -3 0 -20 10 -38 22 -18 13
-33 24 -35 25 -3 1 71 243 90 292 9 24 12 22 99 -65 l89 -89 -12 -33z m3971
103 c-72 -71 -75 -72 -117 -68 -32 4 -42 9 -40 20 2 9 45 44 96 79 80 55 96
62 114 53 19 -10 16 -15 -53 -84z m242 -11 c99 -49 129 -69 125 -80 -3 -9 -6
-22 -6 -30 0 -12 -34 -14 -200 -14 -251 0 -251 0 -147 111 40 42 78 77 85 78
7 0 71 -28 143 -65z m-3556 -37 l210 -72 6 -42 5 -41 -149 -102 c-82 -56 -153
-98 -157 -93 -4 4 -46 90 -95 190 l-87 181 18 26 c11 14 24 25 29 25 6 0 105
-33 220 -72z m885 -118 l238 -161 5 -51 c5 -49 3 -54 -30 -89 -35 -36 -37 -37
-65 -22 -19 10 -43 13 -66 9 l-37 -5 -148 225 c-157 239 -166 255 -147 255 6
0 119 -72 250 -161z m2035 144 c38 -18 45 -37 18 -47 -18 -7 -63 29 -63 51 0
17 2 16 45 -4z m-3380 -13 c-10 -11 -23 -20 -29 -20 -6 1 0 10 13 20 30 26 39
26 16 0z m98 3 c15 -5 17 -21 17 -156 l0 -151 -59 58 -58 57 15 43 c14 38 14
45 -1 76 -17 33 -17 34 10 62 17 18 33 26 43 22 8 -3 23 -9 33 -11z m847 12
c0 -2 -10 -25 -22 -49 -21 -44 -22 -44 -36 -25 -13 19 -12 23 14 50 25 26 44
37 44 24z m2324 -128 c-20 -59 -39 -107 -42 -107 -4 0 -6 49 -4 108 3 107 3
109 30 119 19 7 31 7 39 -1 10 -9 5 -34 -23 -119z m-2053 -114 c85 -130 153
-239 152 -242 -2 -3 -7 -6 -13 -6 -8 0 -305 196 -425 281 l-44 31 39 81 c39
81 39 81 82 85 24 2 46 4 49 5 3 1 75 -104 160 -235z m-956 41 c50 -103 91
-190 93 -194 2 -5 -17 -22 -41 -39 l-45 -30 -66 60 -66 61 0 164 c0 224 6 223
125 -22z m2923 -35 c-9 -6 -19 3 -31 27 -18 35 -18 37 3 102 33 104 35 104 38
-12 2 -81 -1 -111 -10 -117z m412 187 c0 -18 -17 -29 -30 -21 -8 5 -7 11 1 21
15 18 29 18 29 0z m-254 -8 c5 -7 9 -41 9 -75 2 -58 0 -64 -31 -94 -19 -18
-39 -29 -47 -26 -13 5 -13 14 4 64 10 32 24 77 31 101 13 43 21 51 34 30z
m205 -28 c26 -15 24 -30 -5 -30 -27 0 -41 14 -31 30 8 13 12 12 36 0z m17 -61
c-2 -6 -7 -10 -11 -10 -4 1 -14 1 -22 1 -8 0 -15 5 -15 10 0 6 12 10 26 10 14
0 24 -5 22 -11z m576 -25 c10 -49 68 -111 119 -125 22 -6 59 -8 82 -5 l41 7
29 -61 29 -61 -33 -32 -32 -32 -316 160 c-174 88 -318 166 -321 173 -3 9 43
12 196 12 l200 0 6 -36z m-4344 13 c0 -7 -30 -28 -67 -46 -76 -37 -74 -31 7
23 63 41 60 40 60 23z m2080 -57 c0 -45 -3 -51 -29 -65 -16 -8 -32 -24 -36
-35 -4 -14 -15 -20 -35 -20 -51 0 -42 29 29 103 36 37 67 67 68 67 2 0 3 -22
3 -50z m1635 30 c-3 -5 -11 -10 -16 -10 -6 0 -7 5 -4 10 3 6 11 10 16 10 6 0
7 -4 4 -10z m711 -247 c-2 -2 -117 43 -257 100 -140 57 -262 107 -273 110 -17
7 -17 8 5 26 l23 19 253 -126 c138 -70 251 -128 249 -129z m-4386 215 c18 -13
47 -23 72 -24 l42 -2 44 -87 43 -88 -33 -36 c-18 -20 -35 -39 -39 -44 -3 -4
-77 17 -164 47 l-159 53 -2 60 -2 60 76 41 c42 23 81 42 85 42 4 0 21 -10 37
-22z m4162 -153 c202 -82 365 -152 363 -156 -5 -7 -1025 163 -1025 171 0 3 53
40 117 82 113 74 118 76 147 64 17 -7 196 -79 398 -161z m-3277 150 c19 -15
18 -19 -45 -210 l-64 -195 -42 0 c-23 0 -48 -2 -56 -5 -18 -7 -127 210 -113
224 14 14 289 201 295 201 3 -1 14 -7 25 -15z m393 -170 c129 -97 222 -175
222 -184 0 -13 -62 -32 -300 -92 -300 -76 -301 -77 -311 -55 -6 11 -24 35 -39
51 l-27 30 106 217 c66 137 109 214 116 209 5 -4 110 -83 233 -176z m2342 178
c0 -6 -83 -44 -87 -40 -2 3 1 14 8 25 9 14 22 20 46 19 18 -1 33 -3 33 -4z
m-3340 -162 c0 -19 -18 -31 -46 -31 -16 0 -107 174 -96 185 11 10 142 -132
142 -154z m3024 144 c3 -8 -6 -31 -19 -51 -27 -39 -32 -91 -14 -126 9 -17 5
-26 -27 -59 -20 -21 -41 -36 -45 -34 -8 6 82 285 92 285 4 0 9 -7 13 -15z
m-2404 -196 c-49 -101 -89 -180 -90 -174 0 5 26 87 57 182 57 170 58 172 88
175 16 2 31 3 33 2 1 0 -38 -84 -88 -185z m2594 166 c-9 -14 -19 -23 -22 -20
-5 4 26 45 35 45 2 0 -4 -11 -13 -25z m116 11 c0 -6 -110 -76 -120 -76 -22 0
3 21 58 50 62 32 62 32 62 26z m-1640 -124 c0 -4 -21 -18 -47 -31 -43 -21 -46
-21 -30 -4 9 11 17 25 17 31 0 7 14 12 30 12 17 0 30 -4 30 -8z m2041 -97
c276 -46 503 -86 504 -87 2 -2 5 -22 6 -46 l4 -43 -285 -146 -285 -146 -33 31
c-38 36 -83 47 -146 38 l-43 -7 -141 215 -141 215 17 31 c9 16 22 30 29 30 6
0 237 -38 514 -85z m-1534 -64 l331 -134 31 -101 c17 -56 31 -104 31 -107 0
-3 -27 -14 -60 -24 l-61 -18 -392 56 c-216 32 -395 57 -398 57 -4 0 14 83 40
185 36 147 49 185 62 185 9 0 27 9 40 20 13 11 29 19 34 17 6 -1 160 -62 342
-136z m-481 118 c4 -7 -22 -70 -57 -141 -81 -164 -94 -166 -94 -18 l0 105 60
32 c66 35 80 39 91 22z m-1406 -119 c46 -94 52 -112 40 -121 -12 -7 -33 10
-97 76 -46 47 -83 89 -83 93 1 7 70 60 80 61 3 1 30 -49 60 -109z m862 56 c32
-22 56 -42 53 -44 -5 -6 -64 34 -110 74 -39 33 -15 21 57 -30z m365 37 c4 -12
-84 -63 -109 -63 -6 0 6 18 27 40 39 40 74 49 82 23z m1488 -13 c-3 -5 -16
-15 -28 -21 -22 -12 -22 -12 -3 10 19 21 43 30 31 11z m149 -39 c14 -21 79
-120 144 -219 99 -149 118 -183 106 -193 -18 -15 -17 -16 -178 93 l-138 93 1
125 c2 118 7 139 33 140 4 0 19 -17 32 -39z m-104 22 c0 -8 -81 -133 -86 -133
-2 0 12 32 31 70 19 39 40 70 45 70 6 0 10 -3 10 -7z m-1373 -141 c-18 -72
-34 -132 -37 -132 -3 1 -14 12 -24 27 l-19 26 54 108 c29 60 54 107 56 106 1
-2 -12 -62 -30 -135z m-157 30 l0 -98 -32 -12 c-29 -11 -34 -10 -59 14 -26 25
-27 27 -12 62 8 19 12 48 9 62 -4 23 0 29 37 48 23 11 45 21 50 21 4 1 7 -43
7 -97z m1442 32 l-19 -37 -5 27 c-4 19 0 31 15 41 29 20 31 13 9 -31z m96 -99
l-3 -45 -42 28 -42 28 42 64 42 64 3 -47 c2 -26 2 -67 0 -92z m-2765 -41 c-7
-18 -3 -19 -76 17 l-63 31 10 44 11 44 61 -61 c36 -36 60 -67 57 -75z m926 52
c16 -28 51 -46 91 -46 24 0 31 -5 38 -32 6 -18 13 -41 17 -50 7 -17 -15 -18
-375 -18 -294 0 -381 3 -378 12 3 9 537 153 584 157 6 1 16 -10 23 -23z m1669
-52 c-4 -24 -23 -19 -21 6 1 33 3 34 14 23 6 -6 9 -19 7 -29z m127 -6 l45 -32
0 -62 0 -62 -33 10 c-28 9 -40 22 -65 74 -27 55 -30 67 -20 84 17 26 19 26 73
-12z m-1602 -22 c13 -10 16 -21 11 -40 -10 -40 -29 -31 -46 24 -17 54 -14 55
35 16z m1257 -15 c127 -53 131 -69 23 -105 -43 -14 -83 -26 -88 -26 -9 0 -65
150 -65 174 0 9 13 5 130 -43z m700 -212 c0 -5 -4 -9 -9 -9 -10 0 -260 86
-266 91 -3 4 -8 94 -6 111 1 10 281 -182 281 -193z m-416 146 c3 -8 1 -15 -4
-15 -6 0 -10 7 -10 15 0 8 2 15 4 15 2 0 6 -7 10 -15z m-1522 -45 c12 -29 27
-45 52 -55 l36 -15 0 -112 c0 -64 -4 -108 -9 -103 -4 6 -29 73 -54 150 -25 77
-48 148 -52 158 -4 9 -3 17 1 17 5 0 17 -18 26 -40z m593 -35 c171 -25 326
-48 345 -51 l35 -7 -30 -10 c-16 -5 -188 -63 -381 -128 l-351 -119 -35 33 -35
33 33 140 c44 179 38 166 76 159 18 -3 173 -26 343 -50z m770 25 c10 -11 32
-24 49 -28 25 -7 33 -16 43 -52 7 -24 11 -45 10 -46 -8 -8 -273 40 -279 50
-19 29 -5 42 70 68 95 33 85 32 107 8z m199 -29 c10 -18 16 -35 12 -38 -8 -9
-87 68 -80 78 9 15 49 -8 68 -40z m57 9 c14 0 11 -27 -5 -33 -8 -3 -18 5 -25
20 -10 22 -9 25 4 19 9 -3 21 -6 26 -6z m-1471 -129 c-15 -62 -31 -115 -34
-118 -3 -4 -6 41 -6 99 l0 104 33 15 c17 8 33 14 34 14 1 0 -11 -51 -27 -114z
m1355 63 c26 -44 28 -63 5 -49 -11 7 -20 25 -34 73 -11 35 0 26 29 -24z m297
4 c154 -51 165 -68 43 -68 l-84 0 -17 36 c-11 23 -29 41 -51 50 -31 13 -43 24
-26 24 4 0 65 -19 135 -42z m-642 17 c0 -10 -10 -15 -29 -15 -36 0 -50 17 -19
23 42 8 48 7 48 -8z m390 -27 c0 -14 -19 1 -31 25 -12 22 -12 22 10 3 11 -11
21 -23 21 -28z m-390 -18 c8 -5 43 -93 77 -196 l63 -188 -43 -46 c-23 -25
-174 -179 -336 -342 l-294 -297 -30 16 c-19 9 -44 13 -67 10 l-37 -5 -163 333
-163 333 22 28 c12 15 24 44 27 65 l6 38 137 46 c75 25 253 86 396 135 251 87
262 90 325 84 36 -3 72 -10 80 -14z m341 -105 l18 -60 -97 -97 c-53 -54 -99
-98 -102 -98 -4 0 -30 74 -59 165 -28 91 -54 172 -57 179 -4 10 27 8 137 -8
l141 -21 19 -60z m32 33 c3 -13 9 -33 12 -45 4 -13 3 -23 -3 -23 -5 0 -12 12
-15 28 -3 15 -9 35 -12 45 -4 9 -3 17 3 17 5 0 12 -10 15 -22z m397 -13 c0 -9
7 -30 16 -47 l16 -31 -85 -85 -85 -84 -40 86 -41 86 24 37 c14 19 25 40 25 44
0 5 38 9 85 9 70 0 85 -3 85 -15z m-338 -71 c8 -7 -13 -74 -23 -74 -10 0 -22
57 -14 70 7 11 28 13 37 4z m37 -136 l-1 -123 -23 70 c-24 73 -24 69 10 163
11 31 15 3 14 -110z m88 60 c18 -34 31 -63 29 -65 -2 -2 -22 26 -44 62 -23 36
-36 65 -29 65 7 0 27 -28 44 -62z m196 -64 c-70 -105 -78 -114 -90 -97 -8 9
-12 23 -11 30 4 16 157 183 169 183 5 0 -26 -52 -68 -116z m-370 62 c15 -44
15 -45 -43 -223 -73 -223 -77 -225 -132 -63 -21 63 -38 117 -38 120 0 6 189
210 195 210 2 0 10 -20 18 -44z m169 -59 l48 -72 -33 -33 c-25 -25 -38 -31
-53 -25 -17 7 -19 18 -19 106 0 53 2 97 5 97 3 0 26 -33 52 -73z m218 -47
c-22 -44 -45 -80 -50 -80 -6 0 -10 3 -10 6 0 8 91 154 96 154 2 0 -14 -36 -36
-80z m-339 -37 c14 -45 14 -47 -9 -71 -21 -20 -24 -30 -18 -71 6 -46 5 -48
-43 -95 -27 -26 -51 -44 -53 -39 -6 9 94 323 103 323 3 0 12 -21 20 -47z m200
-84 c-18 -33 -55 -39 -70 -11 -8 13 -3 24 22 50 l31 33 17 -22 c15 -20 15 -24
0 -50z m-439 -80 l35 -105 -23 -28 c-13 -15 -24 -39 -24 -54 0 -25 -21 -37
-339 -199 -186 -95 -341 -173 -345 -173 -3 0 -6 5 -6 11 0 16 653 670 661 662
3 -5 22 -56 41 -114z m408 17 c0 -14 -36 -46 -52 -46 -4 0 1 13 10 30 18 31
42 40 42 16z m1 -69 c-19 -18 -30 -25 -26 -17 13 25 48 60 54 55 3 -3 -10 -20
-28 -38z m-61 -26 c-14 -27 -27 -34 -36 -20 -4 7 1 18 11 26 27 19 37 16 25
-6z m-165 -80 c-3 -6 -11 -11 -17 -11 -6 0 -6 6 2 15 14 17 26 13 15 -4z m29
-57 c3 -8 2 -23 -3 -32 -12 -21 -81 -89 -81 -79 0 16 61 127 69 127 5 0 12 -7
15 -16z m-204 -34 c0 -6 -27 -52 -59 -102 l-60 -92 -283 -72 c-156 -39 -285
-70 -287 -68 -2 1 109 59 245 128 137 68 287 145 334 170 87 46 110 54 110 36z
m108 -42 c-22 -42 -23 -42 -26 -15 -2 20 3 33 20 46 13 11 24 18 26 16 2 -2
-7 -23 -20 -47z m104 -78 c-20 -60 -38 -108 -39 -106 -9 9 51 216 62 216 9 0
3 -32 -23 -110z m-162 50 c0 -5 -5 -10 -11 -10 -5 0 -7 5 -4 10 3 6 8 10 11
10 2 0 4 -4 4 -10z m100 -141 c-21 -83 -40 -152 -43 -155 -2 -2 -7 22 -10 55
-6 57 -5 61 23 90 31 30 39 71 20 101 -6 10 -3 21 12 37 12 13 25 23 29 23 4
0 -10 -68 -31 -151z m-210 51 c-6 -11 -13 -20 -16 -20 -2 0 0 9 6 20 6 11 13
20 16 20 2 0 0 -9 -6 -20z m40 0 c0 -5 -5 -10 -11 -10 -5 0 -7 5 -4 10 3 6 8
10 11 10 2 0 4 -4 4 -10z m10 -41 c0 -12 -77 -101 -92 -107 -5 -2 4 21 19 52
24 49 35 60 66 65 4 0 7 -4 7 -10z m-140 -34 c0 -2 -34 -56 -75 -120 -70 -108
-77 -115 -97 -104 -13 7 -45 9 -87 5 -53 -4 -87 0 -170 22 -91 23 -105 30
-106 49 -1 20 16 26 254 86 258 66 281 71 281 62z m200 -109 l0 -104 -27 -7
c-37 -9 -90 -50 -98 -75 -7 -21 -49 -28 -60 -10 -7 12 161 300 175 300 6 0 10
-43 10 -104z m-87 37 c-109 -187 -130 -218 -151 -221 -28 -4 -28 -3 9 71 18
36 58 90 97 130 37 37 68 67 70 67 1 0 -10 -21 -25 -47z m-121 -50 c-29 -45
-106 -127 -86 -92 20 35 108 148 112 144 3 -2 -9 -26 -26 -52z m247 -81 c1 -7
-3 -10 -9 -7 -5 3 -10 21 -9 38 1 31 1 31 9 7 4 -14 8 -31 9 -38z m-671 -16
c52 -14 95 -26 97 -28 2 -2 -3 -12 -11 -23 -14 -19 -17 -18 -107 27 -50 26
-87 47 -82 47 6 0 52 -10 103 -23z m366 -28 c-21 -42 -21 -41 -34 -33 -8 5 -3
17 16 36 35 37 38 36 18 -3z m-394 -18 l80 -40 0 -56 c0 -64 17 -102 61 -137
24 -19 30 -29 24 -46 -3 -12 -10 -19 -15 -16 -7 5 -154 180 -243 292 -18 22
-16 43 4 43 5 0 45 -18 89 -40z m0 -197 l131 -186 -46 -138 c-41 -122 -49
-139 -68 -139 -20 0 -28 23 -100 320 -72 291 -82 350 -57 335 5 -3 68 -89 140
-192z m420 143 c0 -12 -13 -36 -20 -36 -4 0 -10 9 -13 20 -4 15 0 20 14 20 10
0 19 -2 19 -4z m99 -26 c2 0 1 -3 -2 -7 -12 -11 -77 -10 -77 2 0 20 11 23 43
14 18 -5 34 -9 36 -9z m1 -55 c0 -9 7 -30 16 -47 l16 -31 -73 -73 c-41 -41
-76 -74 -79 -74 -3 0 -19 24 -35 54 l-29 53 40 67 39 66 53 0 c40 0 52 -3 52
-15z m-417 -144 c26 -32 44 -61 40 -64 -6 -7 -14 3 -78 93 -50 69 -23 50 38
-29z m490 37 c12 -6 38 -14 57 -17 30 -5 36 -11 43 -41 11 -49 127 -764 124
-766 -5 -4 -392 660 -392 672 0 12 132 164 142 164 2 0 14 -5 26 -12z m-343
-26 c0 -4 -42 -86 -46 -91 -2 -3 -10 4 -18 14 -10 14 -11 26 -3 51 9 28 14 33
38 31 16 -1 29 -3 29 -5z m50 4 c0 -11 -72 -127 -77 -123 -7 8 56 127 67 127
6 0 10 -2 10 -4z m449 -92 c6 -53 10 -99 8 -101 -4 -4 -37 163 -37 186 0 6 4
11 8 11 5 0 14 -43 21 -96z m-409 6 l24 -50 -34 -35 -34 -35 -23 22 c-13 12
-23 27 -23 35 0 15 52 113 61 113 3 0 16 -23 29 -50z m-155 -50 c-9 -14 -25 5
-25 30 0 12 3 12 16 -2 9 -9 13 -21 9 -28z m-47 -98 c-29 -62 -58 -109 -46
-72 3 8 16 47 29 87 17 55 26 70 35 62 10 -8 6 -25 -18 -77z m328 -103 c47
-94 84 -173 81 -175 -2 -2 -56 60 -120 139 l-116 142 31 32 c18 18 33 33 35
33 2 0 41 -77 89 -171z m-207 132 c19 -26 19 -30 5 -35 -19 -7 -43 19 -44 47
0 25 16 21 39 -12z m187 -18 c46 -80 316 -537 332 -560 31 -48 1 -19 -72 71
-64 79 -96 133 -186 315 -107 216 -129 269 -74 174z m-224 -28 c10 -23 6 -30
-57 -95 -38 -38 -70 -68 -73 -66 -5 6 101 185 111 186 4 0 13 -11 19 -25z
m228 -185 c126 -154 161 -205 211 -302 32 -65 56 -118 52 -118 -30 2 -76 58
-249 303 -162 230 -193 281 -183 293 6 8 13 13 14 12 2 -2 71 -86 155 -188z
m-21 -107 c94 -133 171 -245 171 -248 0 -3 -108 49 -240 115 -224 112 -240
122 -234 144 3 12 -1 38 -9 57 l-15 34 72 73 c39 39 74 71 78 70 3 -2 83 -112
177 -245z m296 -419 c121 -173 114 -162 88 -144 -12 8 -64 47 -115 86 -51 40
-192 147 -313 239 -121 92 -224 171 -230 177 -5 6 103 -46 240 -116 l250 -127
80 -115z m44 136 c33 -41 58 -76 56 -78 -2 -3 -18 1 -35 8 -24 10 -40 31 -72
94 -44 89 -39 87 51 -24z m-48 -60 c17 -10 85 -128 77 -135 -2 -1 -26 31 -55
71 -54 76 -55 81 -22 64z m89 -69 l-1 -26 -14 25 c-18 32 -18 41 0 34 8 -4 15
-18 15 -33z m55 -116 l6 -30 -20 35 c-24 41 -27 60 -7 40 8 -8 17 -28 21 -45z"/>
</g>
</svg>
